<svg width="14" height="8" viewBox="0 0 14 8" fill="none" xmlns="http://www.w3.org/2000/svg">
<path d="M1.98328 0.250021C2.14793 0.249068 2.31114 0.280674 2.46357 0.343027C2.61599 0.405379 2.75463 0.497252 2.87153 0.613377L6.98749 4.76064L11.116 0.776261C11.3504 0.542898 11.6674 0.411913 11.998 0.411913C12.3285 0.411913 12.6455 0.542898 12.8799 0.776261C12.9972 0.892739 13.0903 1.03132 13.1538 1.184C13.2173 1.33668 13.25 1.50045 13.25 1.66586C13.25 1.83126 13.2173 1.99503 13.1538 2.14771C13.0903 2.30039 12.9972 2.43897 12.8799 2.55545L7.87573 7.39183C7.64188 7.62141 7.32747 7.75 7 7.75C6.67253 7.75 6.35812 7.62141 6.12426 7.39183L1.12006 2.38004C1.0028 2.26356 0.909727 2.12498 0.846212 1.9723C0.782698 1.81961 0.749999 1.65585 0.749999 1.49044C0.749999 1.32504 0.782698 1.16127 0.846212 1.00859C0.909727 0.855902 1.0028 0.717325 1.12006 0.600847C1.35197 0.376969 1.66118 0.251306 1.98328 0.250021Z" fill="#6C6866"/>
</svg>
