<svg width="24" height="24" viewBox="0 0 24 24" fill="none" xmlns="http://www.w3.org/2000/svg">
<path d="M20.1574 20.9843H3.21289C3.6666 20.1272 4.33234 19.3844 5.21012 18.7558C6.6274 17.7401 8.37037 17.2127 10.1515 17.2127H13.4146C14.3679 17.2094 15.3149 17.3652 16.2169 17.6736C18.3845 18.4244 19.698 19.528 20.1574 20.9843Z" fill="#352120"/>
<path d="M14.9516 17.3831L16.1758 19.0708L14.1767 20.1363L14.8389 20.9844H11.251L14.9516 17.3831Z" fill="#66564B"/>
<path d="M8.62744 17.3772L7.40332 19.0645L8.8251 20.1305L8.16295 20.9786H11.7509L8.62744 17.3772Z" fill="#66564B"/>
<path d="M11.7513 20.9843H10.6153C10.0942 20.3747 9.14543 19.0976 8.62793 17.3771C9.15699 17.2676 9.69586 17.2125 10.2361 17.2127H13.3187C13.8676 17.2118 14.4151 17.2689 14.952 17.3829C14.9597 17.4233 13.4925 19.8639 11.7513 20.9843Z" fill="white"/>
<path d="M12.1549 20.6817C12.0224 20.7895 11.8854 20.891 11.7506 20.9844H10.6155C10.536 20.8847 10.4457 20.7679 10.3486 20.6358L10.7296 19.3717L11.6505 19.1741L12.1549 20.6817Z" fill="#EA1F46"/>
<path d="M13.7927 16.0681V13.6482H9.57814V16.0681C9.57809 16.5567 9.38986 17.0264 9.05256 17.3799L8.91016 17.529C8.91016 18.971 14.4607 18.971 14.4607 17.529L14.3183 17.3799C13.981 17.0264 13.7928 16.5567 13.7927 16.0681Z" fill="#FEB4A9"/>
<path d="M11.2494 19.7567L10.2314 19.0842L11.2494 18.127L12.1932 19.1341L11.2494 19.7567Z" fill="#EA1F46"/>
<path d="M13.793 13.6482V15.49C12.7921 16.9571 11.2738 17.5703 9.7168 17.5703C9.45338 17.5711 9.19037 17.5493 8.93066 17.5052L9.05195 17.3781C9.38965 17.0247 9.57806 16.5547 9.57799 16.0659V13.6482H13.793Z" fill="#F48C8C"/>
<path d="M12.3779 19.3564L11.249 18.1269L13.7925 16.3242L14.9515 17.383C14.2795 18.2123 13.4125 18.8619 12.3779 19.3564Z" fill="white"/>
<path d="M10.0367 19.2673L11.2496 18.1268L9.56186 16.5244L8.62793 17.3829C8.95541 18.0702 9.44281 18.6932 10.0367 19.2673Z" fill="white"/>
<path d="M5.23477 7.04371C5.23477 7.04371 4.29006 12.1796 8.12459 12.2484C8.12459 12.2484 8.31237 6.904 5.23477 7.04371Z" fill="#352120"/>
<path d="M5.55404 8.06392C5.40116 9.35031 5.35608 10.6472 5.41928 11.9411C5.52933 13.9963 6.81904 16.4908 9.71875 16.489C12.6185 16.4872 15.3838 14.357 14.9198 8.54683C14.79 6.91886 13.41 4.42525 9.51435 4.73566C5.71082 5.03709 5.55404 8.06392 5.55404 8.06392Z" fill="#FEB4A9"/>
<path d="M14.813 11.3712C13.9406 10.5073 13.2789 9.58104 13.2354 8.47147C12.0404 8.92069 9.35142 8.7702 8.91882 5.89745C8.91882 5.89745 8.25578 9.17675 4.98277 9.06893C4.98277 9.06893 3.16972 2.23003 10.4731 3.09433C10.4731 3.09433 16.0911 3.09702 16.1737 7.19569C16.2384 10.4112 14.813 11.3712 14.813 11.3712Z" fill="#352120"/>
<path d="M16.8711 11.1448C17.1596 10.2938 16.8405 9.41652 16.1585 9.18533C15.4764 8.95414 14.6896 9.45657 14.4012 10.3076C14.1127 11.1585 14.4318 12.0358 15.1139 12.267C15.7959 12.4982 16.5827 11.9958 16.8711 11.1448Z" fill="#FEB4A9"/>
<path d="M7.18742 11.1465C7.46082 11.1465 7.68246 10.8164 7.68246 10.4093C7.68246 10.0022 7.46082 9.67212 7.18742 9.67212C6.91402 9.67212 6.69238 10.0022 6.69238 10.4093C6.69238 10.8164 6.91402 11.1465 7.18742 11.1465Z" fill="#442C2A"/>
<path d="M10.9819 11.2287C11.2707 11.2287 11.5048 10.8804 11.5048 10.4507C11.5048 10.021 11.2707 9.67261 10.9819 9.67261C10.6931 9.67261 10.459 10.021 10.459 10.4507C10.459 10.8804 10.6931 11.2287 10.9819 11.2287Z" fill="#442C2A"/>
<path d="M8.93855 12.4596H8.92462C8.18835 12.3859 7.97901 12.0773 7.92017 11.8999C7.842 11.6663 7.9323 11.4013 8.16095 11.1906C8.54997 10.8312 8.80513 10.223 8.80737 10.2171C8.8224 10.1833 8.85002 10.1567 8.88436 10.143C8.9187 10.1292 8.95705 10.1294 8.99125 10.1435C9.02544 10.1577 9.05277 10.1846 9.06743 10.2185C9.08209 10.2525 9.08291 10.2908 9.06972 10.3254C9.05804 10.3528 8.78761 10.9992 8.35097 11.399C8.20452 11.5338 8.14478 11.6838 8.187 11.8105C8.24989 11.9987 8.5356 12.1357 8.95068 12.1775C8.98743 12.1803 9.02162 12.1974 9.04599 12.225C9.07037 12.2527 9.08299 12.2887 9.08117 12.3256C9.07936 12.3624 9.06325 12.397 9.03628 12.4221C9.00931 12.4473 8.9736 12.4609 8.93675 12.4601L8.93855 12.4596Z" fill="#442C2A"/>
<path d="M8.60282 14.0178C8.51297 14.0178 8.41804 14.0139 8.31801 14.0061C8.29194 14.004 8.26653 13.9968 8.24324 13.9849C8.21995 13.973 8.19924 13.9566 8.18228 13.9367C8.16533 13.9168 8.15246 13.8937 8.14442 13.8688C8.13637 13.8439 8.13331 13.8177 8.13541 13.7916C8.1375 13.7656 8.14471 13.7401 8.15662 13.7169C8.16854 13.6936 8.18492 13.6729 8.20484 13.6559C8.22476 13.6389 8.24782 13.6261 8.27271 13.618C8.2976 13.61 8.32383 13.6069 8.34991 13.609C9.477 13.6989 10.0268 13.1751 10.0497 13.1526C10.0683 13.1342 10.0903 13.1196 10.1145 13.1096C10.1387 13.0997 10.1646 13.0946 10.1908 13.0947C10.2169 13.0948 10.2428 13.1 10.2669 13.1101C10.2911 13.1202 10.313 13.135 10.3314 13.1535C10.3498 13.1721 10.3644 13.1941 10.3744 13.2183C10.3843 13.2425 10.3894 13.2684 10.3893 13.2945C10.3892 13.3207 10.384 13.3466 10.3739 13.3707C10.3638 13.3948 10.3491 13.4167 10.3305 13.4352C10.3054 13.4608 9.73395 14.0178 8.60282 14.0178Z" fill="#FF7E7B"/>
<path d="M9.72211 8.825C9.693 8.82481 9.66465 8.81568 9.6409 8.79885C9.61715 8.78201 9.59916 8.75828 9.58935 8.73087C9.57955 8.70346 9.5784 8.6737 9.58608 8.64562C9.59376 8.61754 9.60988 8.59249 9.63227 8.57388C9.6417 8.56625 10.5613 7.82369 11.4377 8.47101C11.4662 8.49399 11.4847 8.52708 11.4893 8.56337C11.494 8.59967 11.4845 8.63636 11.4628 8.6658C11.441 8.69525 11.4088 8.71516 11.3727 8.72138C11.3366 8.72761 11.2996 8.71967 11.2692 8.69922C10.5711 8.18441 9.8434 8.7657 9.8115 8.79265C9.78638 8.81352 9.75477 8.82496 9.72211 8.825Z" fill="#442C2A"/>
<path d="M6.31586 8.825C6.28675 8.82481 6.2584 8.81568 6.23465 8.79885C6.2109 8.78201 6.19291 8.75828 6.1831 8.73087C6.1733 8.70346 6.17215 8.6737 6.17983 8.64562C6.18751 8.61754 6.20363 8.59249 6.22602 8.57388C6.23545 8.56625 7.15455 7.82369 8.03143 8.47101C8.05991 8.49399 8.07842 8.52708 8.08309 8.56337C8.08776 8.59967 8.07824 8.63636 8.0565 8.6658C8.03477 8.69525 8.00251 8.71516 7.96645 8.72138C7.93039 8.72761 7.89332 8.71967 7.86297 8.69922C7.16578 8.18441 6.4367 8.7675 6.40615 8.79265C6.38074 8.81362 6.3488 8.82506 6.31586 8.825Z" fill="#442C2A"/>
<path d="M15.0744 11.1245H15.0645C15.0271 11.1219 14.9923 11.1047 14.9676 11.0765C14.9429 11.0482 14.9305 11.0114 14.9329 10.974C14.9653 10.5176 15.2658 9.66406 16.1934 9.66406H16.2083C16.2458 9.66406 16.2818 9.67897 16.3083 9.70551C16.3349 9.73204 16.3498 9.76804 16.3498 9.80557C16.3498 9.8431 16.3349 9.87909 16.3083 9.90562C16.2818 9.93216 16.2458 9.94707 16.2083 9.94707H16.1952C15.3013 9.94707 15.22 10.9511 15.2168 10.9938C15.214 11.0295 15.1977 11.0628 15.1713 11.0871C15.1449 11.1113 15.1103 11.1247 15.0744 11.1245Z" fill="#F48C8C"/>
<path d="M15.4383 11.7391C15.4082 11.7393 15.3781 11.7364 15.3485 11.7306C15.2708 11.7134 15.1982 11.6785 15.1362 11.6287C15.0743 11.5788 15.0247 11.5153 14.9913 11.4431C14.9192 11.2913 14.8988 11.1201 14.9334 10.9557C15.0057 10.5873 15.3098 10.3358 15.6113 10.3955C15.6888 10.4127 15.7613 10.4475 15.8232 10.4973C15.885 10.5471 15.9346 10.6105 15.9679 10.6825C16.0381 10.8349 16.0586 11.0056 16.0263 11.1702C15.994 11.3349 15.9108 11.4852 15.7883 11.5999C15.6924 11.6872 15.568 11.7367 15.4383 11.7391ZM15.2137 11.01C15.1916 11.1133 15.2034 11.2209 15.2474 11.3168C15.2597 11.3512 15.2808 11.3817 15.3084 11.4055C15.3361 11.4293 15.3694 11.4455 15.4052 11.4525C15.441 11.4596 15.478 11.4572 15.5126 11.4458C15.5472 11.4343 15.5783 11.414 15.6027 11.3869C15.6783 11.3137 15.7297 11.2191 15.75 11.1159C15.7703 11.0126 15.7586 10.9056 15.7164 10.8092C15.7019 10.7763 15.6803 10.7471 15.653 10.7238C15.6257 10.7005 15.5934 10.6836 15.5587 10.6745C15.4132 10.6457 15.2555 10.7998 15.2137 11.0109V11.01Z" fill="#F48C8C"/>
</svg>
