<svg width="15" height="17" viewBox="0 0 15 17" fill="none" xmlns="http://www.w3.org/2000/svg">
<path fill-rule="evenodd" clip-rule="evenodd" d="M1.66667 6.00001C1.22464 6.00001 0.800716 5.82441 0.488155 5.51185C0.175595 5.19929 0 4.77537 0 4.33334V1.83334C0 1.39131 0.175595 0.967388 0.488155 0.654827C0.800716 0.342266 1.22464 0.166672 1.66667 0.166672H5C5.44203 0.166672 5.86595 0.342266 6.17851 0.654827C6.49107 0.967388 6.66667 1.39131 6.66667 1.83334V4.33334C6.66667 4.77537 6.49107 5.19929 6.17851 5.51185C5.86595 5.82441 5.44203 6.00001 5 6.00001H1.66667ZM1.66667 16.8333C1.22464 16.8333 0.800716 16.6577 0.488155 16.3452C0.175595 16.0326 0 15.6087 0 15.1667V9.33334C0 8.89131 0.175595 8.46739 0.488155 8.15483C0.800716 7.84227 1.22464 7.66667 1.66667 7.66667H5C5.44203 7.66667 5.86595 7.84227 6.17851 8.15483C6.49107 8.46739 6.66667 8.89131 6.66667 9.33334V15.1667C6.66667 15.6087 6.49107 16.0326 6.17851 16.3452C5.86595 16.6577 5.44203 16.8333 5 16.8333H1.66667ZM10 16.8333C9.55797 16.8333 9.13405 16.6577 8.82149 16.3452C8.50893 16.0326 8.33333 15.6087 8.33333 15.1667V13.5C8.33333 13.058 8.50893 12.6341 8.82149 12.3215C9.13405 12.0089 9.55797 11.8333 10 11.8333H13.3333C13.7754 11.8333 14.1993 12.0089 14.5118 12.3215C14.8244 12.6341 15 13.058 15 13.5V15.1667C15 15.6087 14.8244 16.0326 14.5118 16.3452C14.1993 16.6577 13.7754 16.8333 13.3333 16.8333H10ZM10 10.1667C9.55797 10.1667 9.13405 9.99108 8.82149 9.67852C8.50893 9.36596 8.33333 8.94203 8.33333 8.50001V1.83334C8.33333 1.39131 8.50893 0.967388 8.82149 0.654827C9.13405 0.342266 9.55797 0.166672 10 0.166672H13.3333C13.7754 0.166672 14.1993 0.342266 14.5118 0.654827C14.8244 0.967388 15 1.39131 15 1.83334V8.50001C15 8.94203 14.8244 9.36596 14.5118 9.67852C14.1993 9.99108 13.7754 10.1667 13.3333 10.1667H10Z" fill="white"/>
</svg>
