<svg width="20" height="21" viewBox="0 0 20 21" fill="none" xmlns="http://www.w3.org/2000/svg">
<path fill-rule="evenodd" clip-rule="evenodd" d="M4.16667 8.00008C3.72464 8.00008 3.30072 7.82449 2.98816 7.51193C2.67559 7.19937 2.5 6.77544 2.5 6.33342V3.83341C2.5 3.39139 2.67559 2.96746 2.98816 2.6549C3.30072 2.34234 3.72464 2.16675 4.16667 2.16675H7.5C7.94203 2.16675 8.36595 2.34234 8.67851 2.6549C8.99107 2.96746 9.16667 3.39139 9.16667 3.83341V6.33342C9.16667 6.77544 8.99107 7.19937 8.67851 7.51193C8.36595 7.82449 7.94203 8.00008 7.5 8.00008H4.16667ZM4.16667 18.8334C3.72464 18.8334 3.30072 18.6578 2.98816 18.3453C2.67559 18.0327 2.5 17.6088 2.5 17.1667V11.3334C2.5 10.8914 2.67559 10.4675 2.98816 10.1549C3.30072 9.84234 3.72464 9.66675 4.16667 9.66675H7.5C7.94203 9.66675 8.36595 9.84234 8.67851 10.1549C8.99107 10.4675 9.16667 10.8914 9.16667 11.3334V17.1667C9.16667 17.6088 8.99107 18.0327 8.67851 18.3453C8.36595 18.6578 7.94203 18.8334 7.5 18.8334H4.16667ZM12.5 18.8334C12.058 18.8334 11.634 18.6578 11.3215 18.3453C11.0089 18.0327 10.8333 17.6088 10.8333 17.1667V15.5001C10.8333 15.0581 11.0089 14.6341 11.3215 14.3216C11.634 14.009 12.058 13.8334 12.5 13.8334H15.8333C16.2754 13.8334 16.6993 14.009 17.0118 14.3216C17.3244 14.6341 17.5 15.0581 17.5 15.5001V17.1667C17.5 17.6088 17.3244 18.0327 17.0118 18.3453C16.6993 18.6578 16.2754 18.8334 15.8333 18.8334H12.5ZM12.5 12.1667C12.058 12.1667 11.634 11.9912 11.3215 11.6786C11.0089 11.366 10.8333 10.9421 10.8333 10.5001V3.83341C10.8333 3.39139 11.0089 2.96746 11.3215 2.6549C11.634 2.34234 12.058 2.16675 12.5 2.16675H15.8333C16.2754 2.16675 16.6993 2.34234 17.0118 2.6549C17.3244 2.96746 17.5 3.39139 17.5 3.83341V10.5001C17.5 10.9421 17.3244 11.366 17.0118 11.6786C16.6993 11.9912 16.2754 12.1667 15.8333 12.1667H12.5Z" fill="#6F7E8C"/>
</svg>
