<svg width="18" height="17" viewBox="0 0 18 17" fill="none" xmlns="http://www.w3.org/2000/svg">
<path fill-rule="evenodd" clip-rule="evenodd" d="M-4.57764e-05 14.3745C-4.57764e-05 15.5466 0.918886 16.5 2.04844 16.5H2.5037H15.003H15.9134H16.3896C16.6505 16.5 16.862 16.2885 16.862 16.0277C16.862 15.7668 16.6505 15.5554 16.3896 15.5554H15.9134C16.2826 14.8912 16.3167 14.0917 16.0054 13.3985L15.9134 13.1937H16.4486C16.6769 13.1937 16.862 13.0086 16.862 12.7804H17.3171H17.5276C17.7885 12.7804 18 12.5689 18 12.3081C18 12.0472 17.7885 11.8357 17.5276 11.8357H17.3171C17.7396 11.1053 17.7395 10.2047 17.3171 9.47421H17.5276C17.7885 9.47421 18 9.26275 18 9.00191C18 8.74106 17.7885 8.5296 17.5276 8.5296H17.3171H17.2602V8.21493V8.11286C17.2602 7.86674 17.2335 7.62135 17.1805 7.381C17.0619 6.84292 16.8143 6.34171 16.4591 5.92055L16.1362 5.5378H16.374C16.8949 5.5378 17.3171 5.11554 17.3171 4.59466C17.3171 4.38278 17.2458 4.17707 17.1146 4.01069L14.6467 0.880828C14.4571 0.640338 14.1677 0.5 13.8615 0.5H4.42612C4.07789 0.5 3.75474 0.681148 3.57304 0.978209L1.16268 4.9189C0.700428 5.30914 0.398336 5.89673 0.398336 6.56177C0.398336 7.7265 1.30654 8.67341 2.42676 8.68499C1.67304 8.99912 1.13802 9.762 1.13802 10.6551C1.13802 11.3035 1.42529 11.8777 1.868 12.2679C0.823955 12.3644 -4.57764e-05 13.2666 -4.57764e-05 14.3745ZM1.89025 5.53787C1.54483 5.74084 1.30871 6.12131 1.30871 6.56177C1.30871 7.21272 1.81932 7.74259 2.4468 7.74264H14.3558C14.9646 7.74264 15.4582 7.24908 15.4582 6.64026C15.4582 6.03143 14.9646 5.53787 14.3558 5.53787H1.89025ZM3.64174 9.47426H3.18653C2.55905 9.47426 2.04847 10.0037 2.04844 10.6551C2.04844 11.3062 2.55905 11.8358 3.18653 11.8358H3.64174H15.2259C15.878 11.8358 16.4067 11.3071 16.4067 10.655C16.4067 10.0029 15.878 9.47426 15.2259 9.47426H3.64174ZM2.50372 13.1937H2.04847C1.42103 13.1937 0.910419 13.7232 0.910419 14.3745C0.910419 15.0258 1.42101 15.5553 2.04844 15.5553H2.5037H13.8222C14.4744 15.5553 15.0031 15.0267 15.0031 14.3745C15.0031 13.7224 14.4744 13.1937 13.8222 13.1937H2.50372Z" fill="#6F7E8C"/>
</svg>
