<svg width="21" height="21" viewBox="0 0 21 21" fill="none" xmlns="http://www.w3.org/2000/svg">
<path d="M4.28515 3.50009C4.28466 3.50009 4.28411 3.50009 4.28362 3.50009C4.11142 3.50009 3.94946 3.56722 3.82716 3.68921C3.70352 3.81254 3.63541 3.97677 3.63541 4.1516V13.9209C3.63541 14.2791 3.92801 14.5713 4.28772 14.5722C5.8042 14.5758 8.3449 14.8919 10.0976 16.7261V6.50227C10.0976 6.38083 10.0666 6.26675 10.0081 6.17234C8.5695 3.85564 5.80506 3.50365 4.28515 3.50009Z" fill="#6F7E8C"/>
<path d="M17.5714 13.9209V4.15151C17.5714 3.97668 17.5033 3.81245 17.3796 3.68911C17.2573 3.56712 17.0952 3.5 16.9232 3.5C16.9227 3.5 16.9221 3.5 16.9216 3.5C15.4018 3.50362 12.6373 3.85561 11.1987 6.17231C11.1402 6.26672 11.1092 6.3808 11.1092 6.50224V16.726C12.8619 14.8918 15.4026 14.5758 16.9191 14.5721C17.2788 14.5712 17.5714 14.2791 17.5714 13.9209Z" fill="#6F7E8C"/>
<path d="M19.055 5.75302H18.5826V13.9209C18.5826 14.8356 17.8374 15.5814 16.9213 15.5837C15.635 15.5868 13.5141 15.8383 12.0121 17.2599C14.6099 16.6238 17.3485 17.0373 18.9092 17.393C19.1041 17.4374 19.3054 17.3915 19.4616 17.2671C19.6172 17.1429 19.7064 16.9574 19.7064 16.7582V6.40441C19.7065 6.04525 19.4142 5.75302 19.055 5.75302Z" fill="#6F7E8C"/>
<path d="M2.62388 13.9209V5.75302H2.15149C1.79239 5.75302 1.5001 6.04525 1.5001 6.40441V16.758C1.5001 16.9573 1.58936 17.1428 1.74494 17.2669C1.90095 17.3913 2.10214 17.4373 2.29733 17.3928C3.85806 17.0371 6.5967 16.6237 9.19441 17.2597C7.6924 15.8381 5.5715 15.5867 4.28521 15.5836C3.36918 15.5814 2.62388 14.8356 2.62388 13.9209Z" fill="#6F7E8C"/>
</svg>
