<svg width="24" height="24" viewBox="0 0 24 24" fill="none" xmlns="http://www.w3.org/2000/svg">
<path d="M20.1336 20.8586H4.08301C4.51306 20.047 5.14361 19.3432 5.97467 18.7472C7.31738 17.7855 8.96871 17.2859 10.6542 17.2859H13.7466C14.6499 17.2828 15.5473 17.4306 16.4019 17.723C18.4546 18.4343 19.6985 19.4795 20.1336 20.8586Z" fill="#352120"/>
<path d="M15.203 17.4473L16.3624 19.046L14.4689 20.0554L15.0961 20.8586L11.6973 20.8591L15.203 17.4473Z" fill="#66564B"/>
<path d="M9.21262 17.4419L8.05273 19.0402L9.39949 20.0501L8.77283 20.8533H12.1712L9.21262 17.4419Z" fill="#66564B"/>
<path d="M12.1708 20.859H11.0926C10.5985 20.2813 9.70006 19.0711 9.20996 17.4418C9.71124 17.338 10.2218 17.2858 10.7337 17.2859H13.6536C14.1736 17.2853 14.6921 17.3393 15.2007 17.4472C15.2102 17.4858 13.8203 19.7975 12.1708 20.859Z" fill="white"/>
<path d="M12.5527 20.572C12.4274 20.674 12.2998 20.7701 12.1709 20.859H11.0928C11.0173 20.7643 10.9319 20.6538 10.8398 20.5284L11.1992 19.3313L12.0752 19.1426L12.5527 20.572Z" fill="#EA1F46"/>
<path d="M19.9687 14.1674C19.9687 14.1674 20.7876 16.2728 18.7109 16.2728C18.7109 16.2728 18.0128 17.0482 17.0865 16.431C17.0865 16.431 9.73232 18.8316 6.46515 16.7054C6.46515 16.7054 5.28012 17.0828 4.92972 15.9243C4.92972 15.9243 3.15935 16.5608 3.57353 14.3812C3.84037 12.9778 3.32556 12.2793 4.4823 10.9784C5.75629 9.5467 4.43513 8.45105 6.58375 5.73103C7.11832 5.0572 7.59763 2.42927 11.1658 3.60982C11.1658 3.60982 14.6315 2.00791 15.8794 4.72703C16.5223 6.12769 18.2154 6.12769 18.0132 8.40613C17.8448 10.3054 19.9889 9.15228 19.9687 14.1674Z" fill="#823131"/>
<path d="M8.09576 15.4437C7.81936 15.4437 7.54916 15.3618 7.31934 15.2082C7.08952 15.0546 6.9104 14.8364 6.80462 14.581C6.69885 14.3256 6.67117 14.0447 6.7251 13.7736C6.77902 13.5025 6.91212 13.2535 7.10757 13.058C7.30301 12.8626 7.55203 12.7295 7.82312 12.6755C8.09421 12.6216 8.37521 12.6493 8.63057 12.7551C8.88593 12.8608 9.1042 13.04 9.25776 13.2698C9.41132 13.4996 9.49328 13.7698 9.49328 14.0462C9.49293 14.4167 9.34557 14.772 9.08356 15.034C8.82156 15.296 8.4663 15.4434 8.09576 15.4437ZM8.09576 12.8832C7.866 12.8832 7.64141 12.9513 7.45037 13.079C7.25933 13.2066 7.11044 13.388 7.02251 13.6003C6.93459 13.8126 6.91158 14.0461 6.9564 14.2715C7.00123 14.4968 7.11187 14.7038 7.27433 14.8663C7.43679 15.0287 7.64379 15.1394 7.86913 15.1842C8.09447 15.229 8.32805 15.206 8.54032 15.1181C8.75259 15.0302 8.93402 14.8813 9.06166 14.6902C9.18931 14.4992 9.25744 14.2746 9.25744 14.0449C9.25673 13.7371 9.13407 13.4422 8.91633 13.2247C8.69858 13.0072 8.40352 12.8849 8.09576 12.8845V12.8832Z" fill="#FFE4D2"/>
<path d="M14.0064 16.2183V14.062H10.2478V16.2183C10.2474 16.6534 10.0794 17.0716 9.77884 17.3862C9.7262 17.4409 9.69377 17.5118 9.68691 17.5874C9.68005 17.6629 9.69917 17.7385 9.7411 17.8018C10.3507 18.711 13.9031 18.711 14.5127 17.8018C14.5544 17.7385 14.5734 17.6629 14.5665 17.5874C14.5597 17.5119 14.5274 17.441 14.475 17.3862C14.1745 17.0716 14.0068 16.6533 14.0064 16.2183Z" fill="#FEB4A9"/>
<path d="M14.0087 16.3032C12.8825 17.1185 11.5214 17.4069 10.2443 17.3121C10.1194 17.3028 9.99826 17.2893 9.88086 17.2717C10.1187 16.9721 10.2482 16.6008 10.2483 16.2183V14.062H14.0069V16.2183C14.0069 16.2466 14.0078 16.2749 14.0087 16.3032Z" fill="#F48C8C"/>
<path d="M7.12102 7.5715C6.86309 8.77282 6.71275 9.99474 6.6718 11.2228C6.61745 13.1715 7.32137 15.6071 10.244 15.8237C13.1666 16.0402 16.5232 14.2541 16.5232 8.73273C16.5232 7.18563 15.3323 4.72705 11.381 4.72705C7.52397 4.72705 7.12102 7.5715 7.12102 7.5715Z" fill="#FEB4A9"/>
<path d="M15.6299 10.9219C15.6299 10.9219 13.988 11.093 13.6924 9.18925C13.3968 7.28546 12.1983 7.91167 11.9404 6.93686C11.4804 5.19614 10.1629 5.94858 10.1629 5.94858C10.1629 5.94858 8.86375 5.28509 8.48102 6.70776C8.22631 7.65562 7.76721 8.0963 6.48828 8.0963L6.66797 6.72349L7.95318 4.72895L11.7158 4.19214L14.9906 4.72895L17.1595 7.64169L16.4726 11.9991L16.0876 11.9232L15.6299 10.9219Z" fill="#823131"/>
<path d="M17.856 12.4419C18.3443 11.6822 18.2465 10.7491 17.6376 10.3576C17.0286 9.96617 16.1391 10.2646 15.6508 11.0242C15.1625 11.7839 15.2603 12.717 15.8692 13.1085C16.4781 13.4999 17.3677 13.2015 17.856 12.4419Z" fill="#FEB4A9"/>
<path d="M16.2063 15.4051C16.0069 15.4528 15.7994 15.4561 15.5986 15.4147C15.3978 15.3732 15.2085 15.2881 15.0443 15.1654C14.88 15.0426 14.7448 14.8852 14.6482 14.7044C14.5516 14.5235 14.496 14.3236 14.4853 14.1188C14.4746 13.9141 14.5091 13.7094 14.5864 13.5195C14.6636 13.3296 14.7817 13.1589 14.9323 13.0198C15.0828 12.8806 15.2622 12.7762 15.4576 12.7141C15.653 12.652 15.8597 12.6336 16.063 12.6603C16.093 12.6656 16.1199 12.6823 16.1379 12.7068C16.1559 12.7314 16.1638 12.762 16.1598 12.7922C16.1558 12.8225 16.1402 12.85 16.1164 12.869C16.0926 12.888 16.0623 12.8971 16.032 12.8944C15.7559 12.8586 15.4762 12.9234 15.244 13.077C15.0118 13.2305 14.8426 13.4624 14.7673 13.7304C14.6921 13.9984 14.7158 14.2846 14.8341 14.5365C14.9525 14.7885 15.1575 14.9894 15.4119 15.1026C15.6662 15.2158 15.9527 15.2337 16.2191 15.153C16.4855 15.0723 16.714 14.8984 16.8628 14.6631C17.0115 14.4278 17.0706 14.1469 17.0293 13.8716C16.9879 13.5963 16.8489 13.3451 16.6375 13.1639C16.7293 13.1509 16.8196 13.1288 16.9071 13.0979C17.0692 13.2731 17.1833 13.4873 17.2381 13.7196C17.3245 14.0799 17.2644 14.4598 17.0709 14.7758C16.8775 15.0918 16.5665 15.3182 16.2063 15.4051Z" fill="#FFE4D2"/>
<path d="M8.42211 10.943C8.68112 10.943 8.89109 10.6305 8.89109 10.245C8.89109 9.85942 8.68112 9.54688 8.42211 9.54688C8.1631 9.54688 7.95312 9.85942 7.95312 10.245C7.95312 10.6305 8.1631 10.943 8.42211 10.943Z" fill="#442C2A"/>
<path d="M12.016 11.0212C12.2896 11.0212 12.5115 10.6912 12.5115 10.284C12.5115 9.87692 12.2896 9.54688 12.016 9.54688C11.7423 9.54688 11.5205 9.87692 11.5205 10.284C11.5205 10.6912 11.7423 11.0212 12.016 11.0212Z" fill="#442C2A"/>
<path d="M10.0807 12.1874H10.0677C9.37005 12.1173 9.17195 11.8253 9.11579 11.6573C9.04212 11.4358 9.12747 11.1847 9.34445 10.9835C9.7128 10.6447 9.95448 10.0671 9.95673 10.0612C9.96233 10.0434 9.97159 10.0269 9.98391 10.0128C9.99624 9.99872 10.0114 9.98736 10.0283 9.97945C10.0453 9.97153 10.0637 9.96724 10.0824 9.96683C10.1011 9.96642 10.1197 9.96991 10.137 9.97708C10.1542 9.98425 10.1698 9.99494 10.1828 10.0085C10.1957 10.022 10.2056 10.0381 10.212 10.0557C10.2184 10.0733 10.221 10.092 10.2198 10.1106C10.2185 10.1293 10.2134 10.1475 10.2047 10.1641C10.1944 10.1897 9.93786 10.8024 9.52593 11.1811C9.38712 11.3087 9.33052 11.4506 9.3705 11.5706C9.43025 11.7503 9.70068 11.8788 10.0942 11.9183C10.1299 11.92 10.1635 11.9359 10.1876 11.9624C10.2116 11.9889 10.2242 12.0238 10.2224 12.0596C10.2207 12.0953 10.2049 12.1289 10.1784 12.1529C10.1519 12.177 10.1169 12.1895 10.0812 12.1878L10.0807 12.1874Z" fill="#442C2A"/>
<path d="M9.76365 13.6622C9.67695 13.6622 9.58756 13.6586 9.49412 13.651C9.46888 13.6498 9.44414 13.6435 9.42137 13.6326C9.39859 13.6216 9.37825 13.6062 9.36155 13.5872C9.34485 13.5683 9.33213 13.5462 9.32413 13.5222C9.31614 13.4982 9.31305 13.4729 9.31504 13.4477C9.31702 13.4225 9.32405 13.398 9.3357 13.3756C9.34735 13.3531 9.36338 13.3333 9.38285 13.3172C9.40232 13.3011 9.42482 13.289 9.44903 13.2818C9.47323 13.2745 9.49865 13.2722 9.52377 13.275C10.5911 13.3594 11.1127 12.864 11.1342 12.8424C11.17 12.8071 11.2182 12.7875 11.2685 12.7878C11.3187 12.7882 11.3667 12.8085 11.402 12.8442C11.4372 12.8799 11.4568 12.9282 11.4565 12.9784C11.4562 13.0286 11.4359 13.0767 11.4002 13.1119C11.3759 13.1357 10.835 13.6622 9.76365 13.6622Z" fill="#FF625A"/>
<path d="M10.001 13.9203C9.85105 13.923 9.70599 13.8671 9.59668 13.7645L9.86621 13.4999L9.86262 13.4967C9.88957 13.5205 10.0365 13.6315 10.3118 13.4042C10.3506 13.3725 10.4004 13.3575 10.4502 13.3625C10.5001 13.3675 10.5459 13.3921 10.5775 13.4309C10.6092 13.4697 10.6242 13.5195 10.6192 13.5693C10.6142 13.6191 10.5896 13.6649 10.5508 13.6966C10.3464 13.8633 10.1582 13.9203 10.001 13.9203Z" fill="#FF625A"/>
<path d="M10.8235 8.74451C10.7959 8.74436 10.769 8.73574 10.7464 8.71981C10.7239 8.70387 10.7068 8.6814 10.6974 8.65543C10.6881 8.62946 10.6869 8.60124 10.6941 8.57459C10.7013 8.54794 10.7165 8.52414 10.7377 8.50642C10.7467 8.49923 11.6173 7.79576 12.4479 8.40894C12.4638 8.4187 12.4775 8.43167 12.4881 8.44701C12.4988 8.46234 12.5061 8.47972 12.5097 8.49805C12.5132 8.51637 12.5129 8.53523 12.5088 8.55344C12.5047 8.57165 12.4969 8.58881 12.4858 8.60382C12.4747 8.61884 12.4606 8.63139 12.4444 8.64068C12.4283 8.64997 12.4103 8.6558 12.3918 8.65779C12.3732 8.65978 12.3544 8.6579 12.3366 8.65226C12.3188 8.64661 12.3024 8.63734 12.2884 8.62501C11.6245 8.13492 10.9156 8.70767 10.9088 8.71486C10.8847 8.73427 10.8545 8.74474 10.8235 8.74451Z" fill="#442C2A"/>
<path d="M7.5978 8.74451C7.57804 8.74442 7.55854 8.73999 7.54069 8.73152C7.52283 8.72306 7.50706 8.71078 7.49448 8.69554C7.47189 8.66803 7.46111 8.63271 7.46447 8.59728C7.46784 8.56184 7.48508 8.52918 7.51245 8.50642C7.52098 8.49923 8.39202 7.79576 9.22217 8.40894C9.23808 8.4187 9.25179 8.43167 9.26242 8.44701C9.27306 8.46234 9.28039 8.47972 9.28396 8.49805C9.28753 8.51637 9.28725 8.53523 9.28314 8.55344C9.27904 8.57165 9.27119 8.58881 9.26011 8.60382C9.24902 8.61884 9.23494 8.63139 9.21875 8.64068C9.20256 8.64997 9.18462 8.6558 9.16606 8.65779C9.1475 8.65978 9.12873 8.6579 9.11094 8.65226C9.09315 8.64661 9.07672 8.63734 9.0627 8.62501C8.3992 8.13492 7.69034 8.70767 7.68315 8.71486C7.65896 8.73427 7.62881 8.74474 7.5978 8.74451Z" fill="#442C2A"/>
<path d="M16.0882 12.0571H16.0792C16.0439 12.0546 16.0109 12.0382 15.9875 12.0115C15.9642 11.9849 15.9522 11.9501 15.9543 11.9147C15.9831 11.4834 16.2688 10.6726 17.1484 10.6726H17.1623C17.198 10.6726 17.2323 10.6868 17.2576 10.7121C17.2829 10.7374 17.2971 10.7716 17.2971 10.8074C17.2971 10.8431 17.2829 10.8774 17.2576 10.9027C17.2323 10.9279 17.198 10.9421 17.1623 10.9421H17.1502C16.3029 10.9421 16.2266 11.8931 16.2234 11.9336C16.2206 11.9674 16.2051 11.9989 16.18 12.0218C16.155 12.0447 16.1222 12.0573 16.0882 12.0571Z" fill="#F48C8C"/>
<path d="M16.4324 12.6396C16.4041 12.6397 16.376 12.6368 16.3484 12.631C16.0627 12.5753 15.8866 12.2456 15.9553 11.897C15.9838 11.7405 16.0626 11.5976 16.1799 11.49C16.2352 11.4388 16.3015 11.401 16.3737 11.3796C16.4459 11.3582 16.5221 11.3537 16.5963 11.3665C16.8816 11.4227 17.0577 11.7519 16.989 12.1005C16.9607 12.2571 16.8818 12.4001 16.7643 12.5075C16.6733 12.5903 16.5554 12.6372 16.4324 12.6396ZM16.5119 11.6266C16.4545 11.6297 16.4001 11.6529 16.3582 11.6922C16.2852 11.7603 16.2362 11.8503 16.2185 11.9487C16.1795 12.149 16.2635 12.3409 16.3982 12.3678C16.4321 12.3721 16.4665 12.3688 16.4989 12.3581C16.5314 12.3474 16.561 12.3295 16.5856 12.3058C16.6584 12.2374 16.7072 12.1473 16.7248 12.0489C16.7643 11.849 16.6799 11.6567 16.5451 11.6297C16.5342 11.6276 16.523 11.6266 16.5119 11.6266Z" fill="#F48C8C"/>
<path d="M20.3432 14.7821C20.1839 14.7811 20.0275 14.7402 19.8881 14.663C19.1114 14.2398 18.7588 12.8738 18.9448 11.0082C19.1474 8.97949 17.5881 7.12737 17.5724 7.10895C17.5591 7.09586 17.5487 7.08015 17.5418 7.06282C17.5349 7.04548 17.5317 7.02691 17.5323 7.00826C17.533 6.98962 17.5375 6.97131 17.5456 6.9545C17.5536 6.93769 17.5651 6.92274 17.5793 6.9106C17.5935 6.89846 17.61 6.8894 17.6279 6.88398C17.6457 6.87856 17.6645 6.87691 17.683 6.87913C17.7015 6.88135 17.7194 6.88739 17.7355 6.89687C17.7515 6.90635 17.7655 6.91906 17.7764 6.9342C17.8437 7.01326 19.4259 8.8901 19.2139 11.0347C19.0081 13.1011 19.4942 14.1419 20.0184 14.4272C20.1353 14.4941 20.2701 14.5234 20.4042 14.511C20.5384 14.4986 20.6655 14.4452 20.7682 14.358C20.7963 14.3393 20.8304 14.3318 20.8637 14.3371C20.8971 14.3424 20.9273 14.3599 20.9483 14.3864C20.9693 14.4128 20.9796 14.4461 20.9772 14.4798C20.9748 14.5135 20.9598 14.545 20.9353 14.5682C20.7682 14.7052 20.5592 14.7807 20.3432 14.7821Z" fill="#823131"/>
<path d="M3.95922 11.2169C3.82527 11.2172 3.69218 11.1955 3.56525 11.1527C3.26652 11.0507 3.06707 10.8454 3.01811 10.5889C3.0134 10.571 3.01243 10.5524 3.01524 10.5341C3.01805 10.5158 3.02459 10.4983 3.03445 10.4827C3.04431 10.4671 3.05727 10.4536 3.07255 10.4432C3.08782 10.4328 3.10507 10.4257 3.12322 10.4222C3.14138 10.4188 3.16005 10.4191 3.17807 10.4231C3.1961 10.4272 3.2131 10.4349 3.22802 10.4458C3.24293 10.4568 3.25544 10.4706 3.26477 10.4866C3.2741 10.5025 3.28005 10.5202 3.28225 10.5386C3.31234 10.6976 3.44711 10.8288 3.65195 10.898C3.91205 10.9878 4.29344 10.9712 4.55893 10.7362C4.80824 10.5152 4.8882 10.1523 4.79027 9.68731C4.62047 8.88366 4.70897 8.21926 5.05307 7.71075C5.51666 7.02839 6.27135 6.89227 6.30324 6.88688C6.32136 6.88205 6.34028 6.88105 6.35881 6.88394C6.37733 6.88684 6.39504 6.89357 6.41082 6.9037C6.42659 6.91383 6.44008 6.92714 6.45042 6.94278C6.46076 6.95842 6.46772 6.97605 6.47086 6.99453C6.47399 7.01302 6.47324 7.03195 6.46864 7.05013C6.46405 7.0683 6.45571 7.08532 6.44416 7.10009C6.43262 7.11486 6.41811 7.12706 6.40158 7.13591C6.38505 7.14476 6.36686 7.15006 6.34816 7.15147C6.33963 7.15147 5.66984 7.2777 5.27274 7.86483C4.97311 8.30821 4.89899 8.90253 5.05262 9.63026C5.20311 10.3441 4.96277 10.734 4.73816 10.933C4.52129 11.1185 4.24462 11.2194 3.95922 11.2169Z" fill="#823131"/>
<path d="M11.6954 19.6961L10.7305 19.0591L11.6954 18.1521L12.5889 19.1058L11.6954 19.6961Z" fill="#EA1F46"/>
<path d="M12.7641 19.3169L11.6963 18.1543L14.1054 16.4473L15.2033 17.4499C14.5668 18.2329 13.7452 18.8479 12.7641 19.3169Z" fill="white"/>
<path d="M10.5465 19.2325L11.6956 18.1544L10.0964 16.6365L9.21191 17.4496C9.52232 18.0987 9.98412 18.6867 10.5465 19.2325Z" fill="white"/>
</svg>
