<svg width="17" height="17" viewBox="0 0 17 17" fill="none" xmlns="http://www.w3.org/2000/svg">
<path d="M8.5 0.166687C13.1025 0.166687 16.8333 3.89752 16.8333 8.50002C16.8333 13.1025 13.1025 16.8334 8.5 16.8334C7.15185 16.8351 5.82357 16.5085 4.63 15.8817L1.055 16.8125C0.935544 16.8436 0.810034 16.843 0.690906 16.8106C0.571779 16.7783 0.46317 16.7154 0.375843 16.6282C0.288517 16.5409 0.225505 16.4324 0.193053 16.3133C0.160601 16.1942 0.159835 16.0687 0.190831 15.9492L1.12083 12.375C0.492331 11.1802 0.164807 9.85007 0.166664 8.50002C0.166664 3.89752 3.8975 0.166687 8.5 0.166687ZM8.5 11.4167C8.27898 11.4167 8.06702 11.5045 7.91074 11.6608C7.75446 11.817 7.66666 12.029 7.66666 12.25C7.66666 12.471 7.75446 12.683 7.91074 12.8393C8.06702 12.9956 8.27898 13.0834 8.5 13.0834C8.72101 13.0834 8.93297 12.9956 9.08925 12.8393C9.24553 12.683 9.33333 12.471 9.33333 12.25C9.33333 12.029 9.24553 11.817 9.08925 11.6608C8.93297 11.5045 8.72101 11.4167 8.5 11.4167ZM8.5 4.12502C7.89221 4.12502 7.30932 4.36646 6.87954 4.79623C6.44977 5.226 6.20833 5.8089 6.20833 6.41669C6.20838 6.57504 6.26854 6.72747 6.37664 6.84318C6.48475 6.95889 6.63275 7.02925 6.79073 7.04004C6.94872 7.05084 7.10491 7.00126 7.22775 6.90133C7.35059 6.8014 7.43091 6.65856 7.4525 6.50169L7.46416 6.31002C7.49231 6.04507 7.62091 5.80098 7.82351 5.62795C8.02612 5.45492 8.28733 5.3661 8.55342 5.37976C8.8195 5.39342 9.07024 5.50852 9.25406 5.7014C9.43788 5.89427 9.5408 6.15025 9.54167 6.41669C9.54167 6.86585 9.42916 7.08752 9.00416 7.52669L8.75083 7.78502C8.1225 8.43835 7.875 8.90752 7.875 9.75002C7.875 9.91578 7.94085 10.0748 8.05806 10.192C8.17527 10.3092 8.33424 10.375 8.5 10.375C8.66576 10.375 8.82473 10.3092 8.94194 10.192C9.05915 10.0748 9.125 9.91578 9.125 9.75002C9.125 9.30085 9.2375 9.07919 9.6625 8.64002L9.91583 8.38169C10.5442 7.72835 10.7917 7.25919 10.7917 6.41669C10.7917 5.8089 10.5502 5.226 10.1205 4.79623C9.69068 4.36646 9.10779 4.12502 8.5 4.12502Z" fill="#6F7E8C"/>
</svg>
