<svg width="100" height="100" viewBox="0 0 100 100" fill="none" xmlns="http://www.w3.org/2000/svg">
<rect width="100" height="100" rx="5" fill="#F0F9E6"/>
<path d="M33.9703 58V47.721H36.1173V58H33.9703ZM33.9703 46.315V43.845H36.1173V46.315H33.9703ZM38.6275 58V47.721H40.6795V49.944L40.4135 49.602C40.6289 48.9053 41.0215 48.3797 41.5915 48.025C42.1615 47.6703 42.8139 47.493 43.5485 47.493C44.3719 47.493 45.1002 47.7147 45.7335 48.158C46.3795 48.5887 46.8102 49.165 47.0255 49.887L46.4175 49.944C46.7215 49.1207 47.1839 48.5063 47.8045 48.101C48.4379 47.6957 49.1599 47.493 49.9705 47.493C50.6799 47.493 51.3195 47.6577 51.8895 47.987C52.4722 48.3163 52.9345 48.7723 53.2765 49.355C53.6185 49.9377 53.7895 50.6027 53.7895 51.35V58H51.6425V51.939C51.6425 51.4197 51.5475 50.9827 51.3575 50.628C51.1802 50.2607 50.9269 49.982 50.5975 49.792C50.2809 49.5893 49.9072 49.488 49.4765 49.488C49.0459 49.488 48.6659 49.5893 48.3365 49.792C48.0072 49.982 47.7475 50.2607 47.5575 50.628C47.3675 50.9953 47.2725 51.4323 47.2725 51.939V58H45.1445V51.939C45.1445 51.4197 45.0495 50.9827 44.8595 50.628C44.6822 50.2607 44.4289 49.982 44.0995 49.792C43.7829 49.5893 43.4029 49.488 42.9595 49.488C42.5289 49.488 42.1489 49.5893 41.8195 49.792C41.4902 49.982 41.2305 50.2607 41.0405 50.628C40.8632 50.9953 40.7745 51.4323 40.7745 51.939V58H38.6275ZM61.0465 62.18C60.2992 62.18 59.6088 62.0597 58.9755 61.819C58.3422 61.5783 57.7975 61.2427 57.3415 60.812C56.8855 60.394 56.5435 59.9 56.3155 59.33L58.2915 58.513C58.4688 58.9943 58.7918 59.3933 59.2605 59.71C59.7418 60.0267 60.3308 60.185 61.0275 60.185C61.5722 60.185 62.0598 60.0773 62.4905 59.862C62.9212 59.6593 63.2632 59.3553 63.5165 58.95C63.7698 58.5573 63.8965 58.0823 63.8965 57.525V55.207L64.2765 55.644C63.9218 56.3027 63.4278 56.803 62.7945 57.145C62.1738 57.487 61.4708 57.658 60.6855 57.658C59.7355 57.658 58.8805 57.4363 58.1205 56.993C57.3605 56.5497 56.7588 55.9417 56.3155 55.169C55.8848 54.3963 55.6695 53.5287 55.6695 52.566C55.6695 51.5907 55.8848 50.723 56.3155 49.963C56.7588 49.203 57.3542 48.6013 58.1015 48.158C58.8488 47.7147 59.7038 47.493 60.6665 47.493C61.4518 47.493 62.1485 47.664 62.7565 48.006C63.3772 48.3353 63.8838 48.8167 64.2765 49.45L63.9915 49.982V47.721H66.0245V57.525C66.0245 58.4117 65.8092 59.2033 65.3785 59.9C64.9605 60.6093 64.3778 61.1667 63.6305 61.572C62.8832 61.9773 62.0218 62.18 61.0465 62.18ZM60.9325 55.663C61.5025 55.663 62.0092 55.53 62.4525 55.264C62.8958 54.9853 63.2442 54.618 63.4975 54.162C63.7635 53.6933 63.8965 53.1677 63.8965 52.585C63.8965 52.0023 63.7635 51.4767 63.4975 51.008C63.2315 50.5393 62.8768 50.172 62.4335 49.906C61.9902 49.6273 61.4898 49.488 60.9325 49.488C60.3498 49.488 59.8305 49.6273 59.3745 49.906C58.9185 50.172 58.5575 50.5393 58.2915 51.008C58.0382 51.464 57.9115 51.9897 57.9115 52.585C57.9115 53.155 58.0382 53.6743 58.2915 54.143C58.5575 54.6117 58.9185 54.9853 59.3745 55.264C59.8305 55.53 60.3498 55.663 60.9325 55.663Z" fill="#6EC207"/>
</svg>
