<svg width="16" height="16" viewBox="0 0 16 16" fill="none" xmlns="http://www.w3.org/2000/svg">
<g clip-path="url(#clip0_45_1759)">
<path d="M15.9491 7.07853C15.9151 6.99718 15.8664 6.92318 15.8044 6.86118L13.8051 4.86184C13.5444 4.60184 13.1231 4.60184 12.8624 4.86184C12.6018 5.1225 12.6018 5.5445 12.8624 5.8045L13.7244 6.6665H10.0004C9.63174 6.6665 9.33374 6.96515 9.33374 7.33315C9.33374 7.70115 9.63174 7.99981 10.0004 7.99981H13.7244L12.8624 8.86181C12.6017 9.12247 12.6017 9.54447 12.8624 9.80447C12.9924 9.93512 13.163 9.99981 13.3337 9.99981C13.5044 9.99981 13.6751 9.93515 13.8051 9.80447L15.8044 7.80512C15.8664 7.74378 15.9151 7.66978 15.9491 7.58778C16.0164 7.42518 16.0164 7.24118 15.9491 7.07853Z" fill="#DE2323"/>
<path d="M11.334 9.33334C10.9654 9.33334 10.6674 9.632 10.6674 10V13.3333H8.00073V2.66666C8.00073 2.37266 7.80739 2.11266 7.52539 2.028L5.21004 1.33334H10.6674V4.66669C10.6674 5.03469 10.9654 5.33334 11.334 5.33334C11.7027 5.33334 12.0007 5.03469 12.0007 4.66669V0.666687C12.0007 0.298656 11.7027 0 11.334 0H0.667389C0.643389 0 0.622045 0.01 0.598732 0.0126563C0.567389 0.016 0.538732 0.0213125 0.508732 0.0286562C0.438732 0.0466563 0.375389 0.074 0.316076 0.111313C0.30142 0.120656 0.28342 0.121312 0.26942 0.131969C0.264045 0.136 0.262045 0.143344 0.256701 0.147344C0.184045 0.204656 0.123389 0.274656 0.0793887 0.358C0.0700449 0.376 0.0680449 0.395344 0.0607324 0.414C0.0393887 0.464656 0.0160762 0.514 0.00807617 0.57C0.00473242 0.59 0.0107324 0.608656 0.0100762 0.628C0.00941992 0.641344 0.000732422 0.653344 0.000732422 0.666656V14C0.000732422 14.318 0.225389 14.5913 0.536732 14.6533L7.20339 15.9867C7.24673 15.996 7.29073 16 7.33404 16C7.4867 16 7.6367 15.9474 7.7567 15.8487C7.9107 15.722 8.0007 15.5333 8.0007 15.3333V14.6667H11.334C11.7027 14.6667 12.0007 14.368 12.0007 14V10C12.0007 9.632 11.7027 9.33334 11.334 9.33334Z" fill="#DE2323"/>
</g>
<defs>
<clipPath id="clip0_45_1759">
<rect width="16" height="16" fill="white"/>
</clipPath>
</defs>
</svg>
