<svg width="23" height="24" viewBox="0 0 23 24" fill="none" xmlns="http://www.w3.org/2000/svg">
<path d="M15.6741 9.36401C15.6741 9.36401 16.0924 14.4671 13.1846 14.6405V9.36401H15.6741Z" fill="#352120"/>
<path d="M19.8064 20.9844H3.19434C3.64056 20.1441 4.29313 19.4158 5.15203 18.7994C6.54191 17.804 8.25164 17.2869 9.99551 17.2869H13.1962C14.1306 17.2837 15.059 17.4364 15.9432 17.7388C18.0686 18.4747 19.3563 19.5565 19.8064 20.9844Z" fill="#3C5FC7"/>
<path d="M10.6416 19.3743H11.1542V20.9843H10.6416V19.3743Z" fill="#244BAA"/>
<path d="M13.5661 16.1648V13.7925H9.43328V16.1648C9.43317 16.6438 9.24866 17.1043 8.91803 17.4509L8.77832 17.5969C8.77832 18.273 10.8977 19.9877 10.8977 19.9877C10.8977 19.9877 14.222 18.3345 14.222 17.5969L14.0822 17.4509C13.7513 17.1045 13.5664 16.6439 13.5661 16.1648Z" fill="#FEB4A9"/>
<path d="M13.5668 13.7925V15.597C12.5852 17.0345 11.0961 17.6382 9.56871 17.6396C9.31039 17.6404 9.05248 17.6189 8.79785 17.5753L8.91689 17.4509C9.24833 17.1045 9.43351 16.6438 9.43395 16.1644V13.7925H13.5668Z" fill="#F48C8C"/>
<path d="M5.17516 7.31732C5.17516 7.31732 4.24887 12.3517 8.00838 12.42C8.00838 12.42 8.19211 7.18076 5.17516 7.31732Z" fill="#352120"/>
<path d="M5.48939 8.31629C5.33841 9.57755 5.29333 10.8492 5.35462 12.118C5.46243 14.1323 6.72698 16.5779 9.56964 16.5761C12.4123 16.5743 15.126 14.4868 14.6719 8.79067C14.5447 7.19504 13.1894 4.74994 9.37109 5.05451C5.64482 5.35145 5.48939 8.31629 5.48939 8.31629Z" fill="#FEB4A9"/>
<path d="M7.0349 12.1236C5.66703 12.1236 5.50307 11.1016 5.49902 10.333C5.49894 10.096 5.58175 9.86635 5.7331 9.6839C5.88446 9.50145 6.09484 9.37767 6.32783 9.33396C6.79197 9.2448 7.26885 9.2448 7.73299 9.33396C7.97194 9.37837 8.18701 9.50711 8.33904 9.69673C8.49107 9.88636 8.56996 10.1243 8.56135 10.3672C8.53799 11.1205 8.35516 12.1236 7.0349 12.1236ZM7.03266 9.46199C6.80833 9.4622 6.58453 9.48356 6.36422 9.52578C6.17564 9.56104 6.00536 9.66122 5.88293 9.80892C5.7605 9.95662 5.69365 10.1425 5.69398 10.3344C5.69848 11.1237 5.86109 11.9304 7.0349 11.9304C8.17188 11.9304 8.34348 11.0922 8.36594 10.3618C8.3728 10.1656 8.30902 9.97339 8.18618 9.82022C8.06335 9.66705 7.88963 9.56305 7.6966 9.52713C7.47781 9.48471 7.25552 9.4629 7.03266 9.46199Z" fill="#FFE4D2"/>
<path d="M8.46395 10.46H8.46125C8.43535 10.4592 8.41084 10.4482 8.39307 10.4293C8.37531 10.4104 8.36574 10.3853 8.36646 10.3594C8.37333 10.1632 8.30954 9.97102 8.18671 9.81785C8.06388 9.66468 7.89015 9.56068 7.69713 9.52476C7.25699 9.44053 6.80488 9.44053 6.36475 9.52476C6.17617 9.56002 6.00589 9.66019 5.88346 9.8079C5.76103 9.9556 5.69418 10.1415 5.69451 10.3333C5.69457 10.3462 5.69211 10.3588 5.68726 10.3707C5.68242 10.3825 5.67529 10.3933 5.66628 10.4024C5.65727 10.4115 5.64655 10.4187 5.63475 10.4237C5.62295 10.4286 5.61028 10.4312 5.59748 10.4313C5.5717 10.4313 5.54698 10.4211 5.52871 10.4029C5.51044 10.3847 5.50012 10.36 5.5 10.3342C5.49992 10.0972 5.58272 9.86757 5.73408 9.68512C5.88543 9.50267 6.09582 9.37889 6.32881 9.33519C6.79295 9.24602 7.26982 9.24602 7.73396 9.33519C7.97292 9.3796 8.18799 9.50833 8.34002 9.69796C8.49205 9.88758 8.57094 10.1255 8.56232 10.3684C8.56072 10.3933 8.54964 10.4167 8.53135 10.4338C8.51306 10.4508 8.48894 10.4602 8.46395 10.46Z" fill="#352120"/>
<path d="M5.59668 10.3325C5.64161 9.89404 5.81006 9.47043 6.72557 9.37744C6.28508 9.40252 5.8489 9.47788 5.42553 9.60205C5.39706 9.61003 5.37201 9.62715 5.35424 9.65078C5.33646 9.6744 5.32694 9.70321 5.32715 9.73277C5.32698 9.76584 5.33897 9.79782 5.36084 9.82262C5.47135 9.94885 5.57018 10.0508 5.59668 10.3325Z" fill="#352120"/>
<path d="M5.5965 10.4299C5.57208 10.4297 5.54859 10.4204 5.53071 10.4038C5.51282 10.3871 5.50184 10.3644 5.49992 10.34C5.47791 10.102 5.40379 10.018 5.30137 9.90161L5.28789 9.88588C5.25028 9.84355 5.2295 9.78888 5.22949 9.73225C5.22971 9.68155 5.24632 9.63228 5.27684 9.5918C5.30736 9.55132 5.35016 9.52179 5.39885 9.50764C5.82934 9.381 6.27291 9.30398 6.7209 9.27809C6.74587 9.27766 6.77007 9.28679 6.78854 9.30361C6.80701 9.32043 6.81835 9.34367 6.82024 9.36858C6.82214 9.39349 6.81444 9.41818 6.79873 9.4376C6.78302 9.45702 6.76048 9.4697 6.73572 9.47305C5.84986 9.5629 5.73352 9.96719 5.69398 10.3414C5.69174 10.3657 5.68049 10.3882 5.66244 10.4046C5.6444 10.421 5.62087 10.43 5.5965 10.4299ZM5.82111 9.60243C5.70132 9.62998 5.57824 9.66142 5.45186 9.69676C5.44383 9.69902 5.43676 9.70384 5.43173 9.71049C5.4267 9.71714 5.42399 9.72526 5.424 9.7336C5.42414 9.74269 5.42748 9.75144 5.43344 9.75831L5.44691 9.77403C5.49736 9.82796 5.54249 9.88663 5.58168 9.94922C5.6324 9.81592 5.71472 9.69691 5.82156 9.60243H5.82111Z" fill="#352120"/>
<path d="M10.8932 12.1235C9.57387 12.1235 9.39014 11.1204 9.36589 10.3657C9.35718 10.1228 9.43603 9.88483 9.58808 9.69518C9.74013 9.50553 9.95525 9.37682 10.1942 9.3325C10.6584 9.24333 11.1353 9.24333 11.5994 9.3325C11.8324 9.37613 12.0428 9.49991 12.1941 9.68239C12.3454 9.86486 12.428 10.0945 12.4278 10.3316C12.4251 11.1015 12.2633 12.1235 10.8932 12.1235ZM10.8955 9.46188C10.6728 9.46203 10.4507 9.48308 10.232 9.52477C10.0389 9.56059 9.86504 9.66455 9.74212 9.81773C9.61919 9.97091 9.55535 10.1631 9.56219 10.3594C9.58465 11.0898 9.75626 11.9281 10.8932 11.9281C12.067 11.9281 12.2297 11.1195 12.2341 10.332C12.2346 10.1401 12.1677 9.95419 12.0453 9.80647C11.9229 9.65875 11.7525 9.5586 11.5639 9.52342C11.3435 9.48193 11.1197 9.46132 10.8955 9.46188Z" fill="#FFE4D2"/>
<path d="M9.46532 10.46C9.44 10.4601 9.41567 10.4502 9.39748 10.4326C9.37928 10.415 9.36866 10.391 9.36784 10.3657C9.35913 10.1228 9.43799 9.88483 9.59003 9.69518C9.74208 9.50553 9.9572 9.37682 10.1962 9.3325C10.6603 9.24333 11.1372 9.24333 11.6014 9.3325C11.8343 9.37613 12.0447 9.49991 12.196 9.68239C12.3473 9.86486 12.43 10.0945 12.4297 10.3316C12.4297 10.3443 12.4272 10.357 12.4223 10.3688C12.4174 10.3806 12.4102 10.3913 12.4011 10.4003C12.3921 10.4093 12.3813 10.4165 12.3695 10.4213C12.3577 10.4262 12.345 10.4287 12.3322 10.4286C12.3194 10.4285 12.3068 10.426 12.295 10.421C12.2832 10.416 12.2724 10.4088 12.2634 10.3997C12.2544 10.3906 12.2473 10.3799 12.2425 10.368C12.2376 10.3562 12.2351 10.3435 12.2352 10.3307C12.2356 10.1388 12.1688 9.95284 12.0464 9.80512C11.9239 9.6574 11.7536 9.55725 11.565 9.52207C11.125 9.43784 10.673 9.43784 10.233 9.52207C10.0399 9.5579 9.8661 9.66186 9.74317 9.81504C9.62025 9.96822 9.5564 10.1604 9.56325 10.3567C9.56367 10.3695 9.56156 10.3823 9.55705 10.3943C9.55253 10.4063 9.5457 10.4172 9.53694 10.4266C9.52818 10.4359 9.51766 10.4435 9.50599 10.4487C9.49431 10.454 9.48172 10.4569 9.46891 10.4573L9.46532 10.46Z" fill="#352120"/>
<path d="M12.3316 10.3325C12.2866 9.89404 12.1186 9.47043 11.2031 9.37744C11.6435 9.40252 12.0795 9.47788 12.5027 9.60205C12.5312 9.61003 12.5562 9.62715 12.574 9.65078C12.5918 9.6744 12.6013 9.70321 12.6011 9.73277C12.6013 9.76584 12.5893 9.79782 12.5674 9.82262C12.4569 9.94885 12.3572 10.0508 12.3316 10.3325Z" fill="#352120"/>
<path d="M12.332 10.4299C12.3079 10.4299 12.2847 10.4209 12.2668 10.4049C12.2489 10.3888 12.2376 10.3667 12.2349 10.3428C12.1954 9.96995 12.0791 9.56475 11.1936 9.47446C11.1809 9.47349 11.1684 9.47002 11.157 9.46424C11.1456 9.45845 11.1354 9.45047 11.127 9.44075C11.1187 9.43103 11.1123 9.41976 11.1084 9.40758C11.1044 9.39541 11.1028 9.38257 11.1038 9.36979C11.1055 9.3444 11.1172 9.32072 11.1363 9.3039C11.1554 9.28708 11.1804 9.27847 11.2058 9.27995C11.6538 9.30581 12.0973 9.38283 12.5278 9.5095C12.5765 9.52365 12.6193 9.55317 12.6498 9.59366C12.6804 9.63414 12.697 9.68341 12.6972 9.73411C12.6972 9.79074 12.6764 9.8454 12.6388 9.88774L12.6253 9.90346C12.5229 10.0198 12.4488 10.1038 12.4272 10.3419C12.4251 10.3662 12.414 10.3888 12.3962 10.4054C12.3784 10.422 12.355 10.4314 12.3306 10.4317L12.332 10.4299ZM12.1074 9.60249C12.2139 9.69708 12.2959 9.81607 12.3463 9.94928C12.3855 9.88669 12.4307 9.82802 12.4811 9.77409L12.4946 9.75837C12.4989 9.75356 12.5018 9.74773 12.5032 9.74145C12.5046 9.73516 12.5044 9.72862 12.5026 9.72245C12.5007 9.71629 12.4973 9.71069 12.4927 9.70621C12.4881 9.70172 12.4824 9.69849 12.4762 9.69682C12.3513 9.66149 12.2282 9.63004 12.1069 9.60249H12.1074Z" fill="#352120"/>
<path d="M14.7132 10.481C14.8246 14.8608 12.1123 16.7902 9.56879 16.792C7.33572 16.792 5.58691 15.0562 5.58691 13.4458C5.59635 13.4615 5.87621 14.1834 6.69559 14.1232C7.53652 14.0617 7.21623 13.1471 8.36129 13.0545C9.84371 12.935 10.7201 12.3964 11.4986 13.7019C12.2771 15.0073 14.0286 12.6426 13.8368 10.481H14.7132Z" fill="#352120"/>
<path d="M13.2519 9.25964C10.08 8.95193 12.769 5.02845 8.80869 6.2108C5.32949 5.32089 5.71581 8.26507 5.32949 9.36386C3.76081 8.70441 2.33589 2.05552 9.54585 3.41171C9.54585 3.41171 16.6282 1.14271 15.9005 7.46277C15.6054 10.0233 15.7015 10.6572 14.2209 10.6473C13.5457 10.6428 13.2519 9.25964 13.2519 9.25964Z" fill="#352120"/>
<path d="M16.5847 11.3385C16.8675 10.5042 16.5545 9.64408 15.8856 9.41735C15.2167 9.19062 14.4452 9.68315 14.1624 10.5174C13.8796 11.3517 14.1926 12.2119 14.8615 12.4386C15.5304 12.6653 16.3019 12.1728 16.5847 11.3385Z" fill="#FEB4A9"/>
<path d="M7.0901 11.3392C7.35829 11.3392 7.5757 11.0158 7.5757 10.6169C7.5757 10.2179 7.35829 9.89453 7.0901 9.89453C6.82191 9.89453 6.60449 10.2179 6.60449 10.6169C6.60449 11.0158 6.82191 11.3392 7.0901 11.3392Z" fill="#442C2A"/>
<path d="M10.8094 11.4201C11.0925 11.4201 11.322 11.0786 11.322 10.6573C11.322 10.236 11.0925 9.89453 10.8094 9.89453C10.5264 9.89453 10.2969 10.236 10.2969 10.6573C10.2969 11.0786 10.5264 11.4201 10.8094 11.4201Z" fill="#442C2A"/>
<path d="M8.80482 12.6289H8.79089C8.06944 12.557 7.86415 12.2542 7.8062 12.0808C7.72983 11.8513 7.81833 11.5912 8.04249 11.385C8.42388 11.0341 8.67409 10.4367 8.67634 10.4304C8.6917 10.3982 8.71883 10.3731 8.75213 10.3603C8.78544 10.3475 8.82238 10.348 8.85534 10.3617C8.8883 10.3753 8.91476 10.4011 8.92926 10.4337C8.94377 10.4663 8.94521 10.5032 8.93329 10.5368C8.92206 10.5638 8.65657 11.1977 8.23071 11.5894C8.08696 11.7214 8.02857 11.8683 8.06989 11.9937C8.13144 12.1783 8.4113 12.3126 8.81874 12.353C8.85271 12.3583 8.88353 12.3759 8.90524 12.4025C8.92695 12.4292 8.93801 12.4629 8.93628 12.4972C8.93455 12.5316 8.92015 12.564 8.89586 12.5883C8.87158 12.6126 8.83913 12.6271 8.80482 12.6289Z" fill="#442C2A"/>
<path d="M8.47809 14.1564C8.38825 14.1564 8.29526 14.1526 8.19913 14.1451C8.14853 14.1397 8.10203 14.1148 8.06951 14.0757C8.037 14.0365 8.02103 13.9863 8.02501 13.9355C8.02899 13.8848 8.0526 13.8376 8.09082 13.804C8.12904 13.7704 8.17885 13.7531 8.22967 13.7556C9.3343 13.8432 9.87426 13.3302 9.89672 13.3064C9.93377 13.2714 9.98305 13.2522 10.0341 13.253C10.0851 13.2537 10.1337 13.2744 10.1697 13.3106C10.2056 13.3468 10.226 13.3956 10.2265 13.4466C10.2269 13.4976 10.2074 13.5468 10.1721 13.5836C10.1469 13.6088 9.58721 14.1564 8.47809 14.1564Z" fill="#FF7E7B"/>
<path d="M9.57526 9.0634C9.54647 9.06378 9.51828 9.05522 9.49458 9.03887C9.47088 9.02253 9.45285 8.99923 9.44298 8.97219C9.43311 8.94515 9.4319 8.91571 9.4395 8.88794C9.4471 8.86018 9.46314 8.83547 9.48541 8.81722C9.4944 8.81004 10.3955 8.08185 11.2553 8.7166C11.2701 8.72745 11.2825 8.74111 11.292 8.75678C11.3015 8.77245 11.3078 8.78983 11.3105 8.80794C11.3133 8.82604 11.3124 8.84451 11.3081 8.86229C11.3037 8.88007 11.2958 8.89681 11.285 8.91156C11.2741 8.92631 11.2605 8.93877 11.2448 8.94824C11.2291 8.95772 11.2117 8.96401 11.1936 8.96676C11.1755 8.96951 11.1571 8.96867 11.1393 8.96429C11.1215 8.95991 11.1048 8.95206 11.09 8.94121C10.4068 8.43629 9.69205 9.00814 9.66195 9.03105C9.63762 9.05146 9.60701 9.06288 9.57526 9.0634Z" fill="#442C2A"/>
<path d="M6.23639 9.0634C6.20761 9.06378 6.17941 9.05522 6.15571 9.03887C6.13202 9.02253 6.11399 8.99923 6.10412 8.97219C6.09425 8.94515 6.09303 8.91571 6.10063 8.88794C6.10823 8.86018 6.12428 8.83547 6.14654 8.81722C6.15553 8.81004 7.05666 8.08185 7.91602 8.7166C7.9458 8.73846 7.96568 8.77126 7.97128 8.80778C7.97689 8.8443 7.96775 8.88155 7.94589 8.91133C7.92403 8.94112 7.89123 8.961 7.85471 8.9666C7.81819 8.9722 7.78094 8.96307 7.75115 8.94121C7.0643 8.43359 6.33072 9.02656 6.32309 9.03105C6.29876 9.05146 6.26814 9.06288 6.23639 9.0634Z" fill="#442C2A"/>
<path d="M14.8247 11.318H14.8152C14.797 11.3168 14.7792 11.312 14.7629 11.304C14.7465 11.2959 14.7319 11.2847 14.7199 11.2709C14.7079 11.2572 14.6987 11.2413 14.6929 11.224C14.687 11.2067 14.6846 11.1884 14.6859 11.1702C14.7155 10.7242 15.0124 9.88501 15.9217 9.88501H15.936C15.9715 9.88703 16.0049 9.90256 16.0294 9.92841C16.0538 9.95426 16.0674 9.98848 16.0674 10.024C16.0674 10.0596 16.0538 10.0938 16.0294 10.1197C16.0049 10.1455 15.9715 10.1611 15.936 10.1631H15.9235C15.043 10.1631 14.9675 11.1469 14.9644 11.1886C14.962 11.224 14.9462 11.257 14.9202 11.2811C14.8942 11.3051 14.8601 11.3183 14.8247 11.318Z" fill="#F48C8C"/>
<path d="M15.1793 11.9205C15.1501 11.9205 15.1209 11.9178 15.0922 11.9124C15.0161 11.8954 14.945 11.8612 14.8843 11.8124C14.8236 11.7635 14.775 11.7014 14.7422 11.6307C14.6711 11.4819 14.651 11.3137 14.6852 11.1523C14.7149 10.9902 14.7969 10.8423 14.9188 10.7314C14.9759 10.6783 15.0445 10.6392 15.1192 10.6169C15.1939 10.5946 15.2727 10.5898 15.3496 10.6029C15.6447 10.6613 15.8275 11.0023 15.7561 11.363C15.7268 11.5252 15.6446 11.6732 15.5225 11.7839C15.4285 11.8696 15.3065 11.9181 15.1793 11.9205ZM15.2611 10.8724C15.2017 10.8757 15.1454 10.8997 15.102 10.9403C15.0267 11.011 14.9761 11.1041 14.9578 11.2057C14.9362 11.307 14.9477 11.4125 14.9906 11.5067C15.0028 11.5404 15.0235 11.5703 15.0506 11.5936C15.0778 11.6169 15.1105 11.6327 15.1456 11.6396C15.1807 11.6465 15.217 11.6441 15.2509 11.6328C15.2849 11.6215 15.3153 11.6016 15.3392 11.575C15.4149 11.5045 15.4656 11.4113 15.4839 11.3095C15.5243 11.1024 15.439 10.9052 15.2961 10.8756C15.2846 10.8734 15.2728 10.8724 15.2611 10.8724Z" fill="#F48C8C"/>
<path d="M8.45934 10.4601C8.43767 10.4602 8.41658 10.4531 8.3994 10.4399C8.38223 10.4267 8.36994 10.4082 8.36448 10.3872C8.35901 10.3662 8.36069 10.3441 8.36925 10.3241C8.37781 10.3042 8.39275 10.2878 8.41172 10.2773C8.78906 10.0675 9.16012 10.068 9.51455 10.2773C9.53683 10.2905 9.55295 10.312 9.55935 10.3372C9.56575 10.3623 9.56192 10.3889 9.54869 10.4112C9.53547 10.4334 9.51394 10.4495 9.48883 10.456C9.46373 10.4624 9.43711 10.4585 9.41483 10.4453C9.12014 10.2701 8.8232 10.2705 8.50695 10.4453C8.49256 10.4541 8.4762 10.4592 8.45934 10.4601Z" fill="#352120"/>
<path d="M10.8984 19.9875L14.4401 20.4758L14.2213 17.5967L13.7141 16.8896L10.8984 19.9875Z" fill="#5F84E0"/>
<path d="M10.8982 19.9875L7.91992 20.4758L8.53984 17.6394L9.30082 16.8896L10.8982 19.9875Z" fill="#5F84E0"/>
</svg>
