<svg width="18" height="18" viewBox="0 0 18 18" fill="none" xmlns="http://www.w3.org/2000/svg">
<path d="M15.4716 11.9992C15.4132 11.9289 15.3559 11.8586 15.2997 11.7907C14.5263 10.8552 14.0583 10.2906 14.0583 7.64227C14.0583 6.27117 13.7303 5.14617 13.0838 4.30242C12.6071 3.6791 11.9627 3.20625 11.1133 2.8568C11.1024 2.85072 11.0926 2.84274 11.0845 2.83324C10.7789 1.8102 9.94293 1.125 9.00004 1.125C8.05715 1.125 7.22149 1.8102 6.91598 2.83219C6.90783 2.84134 6.8982 2.84906 6.8875 2.85504C4.90539 3.67102 3.94211 5.23652 3.94211 7.64121C3.94211 10.2906 3.47489 10.8552 2.70075 11.7896C2.6445 11.8575 2.58719 11.9264 2.52883 11.9981C2.37808 12.1799 2.28257 12.4011 2.2536 12.6355C2.22463 12.8699 2.26341 13.1077 2.36536 13.3207C2.58227 13.7777 3.04457 14.0614 3.57227 14.0614H14.4317C14.9569 14.0614 15.4161 13.7781 15.6337 13.3232C15.7361 13.1101 15.7752 12.8721 15.7465 12.6374C15.7178 12.4028 15.6224 12.1813 15.4716 11.9992Z" fill="#3685C8"/>
<path d="M8.99994 16.875C9.50796 16.8746 10.0064 16.7367 10.4424 16.4759C10.8784 16.2151 11.2357 15.8412 11.4763 15.3938C11.4877 15.3724 11.4933 15.3484 11.4926 15.3241C11.4919 15.2999 11.485 15.2762 11.4725 15.2555C11.4599 15.2347 11.4422 15.2175 11.4211 15.2056C11.4 15.1937 11.3761 15.1874 11.3519 15.1875H6.64869C6.6244 15.1874 6.60051 15.1936 6.57934 15.2055C6.55816 15.2174 6.54043 15.2345 6.52786 15.2553C6.5153 15.2761 6.50832 15.2998 6.50763 15.3241C6.50693 15.3483 6.51253 15.3724 6.52388 15.3938C6.76454 15.8412 7.12177 16.215 7.55769 16.4758C7.99361 16.7366 8.49198 16.8745 8.99994 16.875Z" fill="#3685C8"/>
</svg>
