<svg width="12" height="12" viewBox="0 0 12 12" fill="none" xmlns="http://www.w3.org/2000/svg">
<path d="M10.6667 4.66672H7.33328V1.33328C7.33328 0.59696 6.73632 0 6 0C5.26368 0 4.66672 0.59696 4.66672 1.33328V4.66656H1.33328C0.59696 4.66656 0 5.26352 0 5.99984C0 6.73616 0.59696 7.33312 1.33328 7.33312H4.66656V10.6664C4.66656 11.4027 5.26352 11.9997 5.99984 11.9997C6.73616 11.9997 7.33312 11.4027 7.33312 10.6664V7.33328H10.6664C11.4027 7.33328 11.9997 6.73632 11.9997 6C11.9997 5.26368 11.403 4.66672 10.6667 4.66672Z" fill="#4379F2"/>
</svg>
