<svg width="18" height="17" viewBox="0 0 18 17" fill="none" xmlns="http://www.w3.org/2000/svg">
<path d="M16.8339 10.3264L15.3019 9.1285C15.3214 8.94377 15.338 8.72782 15.338 8.49934C15.338 8.27085 15.3221 8.0549 15.3019 7.87017L16.8353 6.67157C17.12 6.44657 17.1978 6.04725 17.0165 5.71464L15.4235 2.95835C15.2533 2.64725 14.8804 2.48752 14.5019 2.6271L12.6943 3.35279C12.3478 3.10279 11.9846 2.89169 11.6089 2.72294L11.3339 0.805587C11.2887 0.441687 10.9721 0.166687 10.5978 0.166687H7.40334C7.02903 0.166687 6.71308 0.441687 6.66861 0.80002L6.39293 2.72434C6.02903 2.88824 5.67141 3.09657 5.30959 3.35419L3.49709 2.62642C3.15748 2.49517 2.75123 2.64237 2.58248 2.9521L0.98736 5.71184C0.799176 6.0299 0.876943 6.44309 1.16793 6.67365L2.69986 7.87157C2.67554 8.10559 2.66376 8.30907 2.66376 8.50005C2.66376 8.69104 2.67558 8.89449 2.69986 9.12922L1.16653 10.3278C0.881794 10.5535 0.80471 10.9528 0.98596 11.2848L2.57903 14.041C2.74918 14.3514 3.11861 14.5125 3.50054 14.3723L5.30819 13.6466C5.65403 13.8959 6.01721 14.107 6.39293 14.2764L6.66793 16.1931C6.71304 16.5584 7.02903 16.8334 7.40403 16.8334H10.5985C10.9728 16.8334 11.2894 16.5584 11.3339 16.2L11.6096 14.2764C11.9735 14.1118 12.3304 13.9042 12.6929 13.6459L14.5054 14.3736C14.5929 14.4076 14.6839 14.425 14.7776 14.425C15.0471 14.425 15.295 14.2778 15.42 14.0486L17.02 11.2778C17.1978 10.9528 17.12 10.5535 16.8339 10.3264ZM9.00054 11.2778C7.46861 11.2778 6.22278 10.032 6.22278 8.50002C6.22278 6.96809 7.46861 5.72225 9.00054 5.72225C10.5325 5.72225 11.7783 6.96809 11.7783 8.50002C11.7783 10.032 10.5325 11.2778 9.00054 11.2778Z" fill="#6F7E8C"/>
</svg>
