<svg width="16" height="18" viewBox="0 0 16 18" fill="none" xmlns="http://www.w3.org/2000/svg">
<path fill-rule="evenodd" clip-rule="evenodd" d="M4.755 1.12734C4.82416 0.988937 4.93048 0.872522 5.06206 0.791131C5.19364 0.70974 5.34528 0.666587 5.5 0.666504H10.5C10.6547 0.666587 10.8064 0.70974 10.9379 0.791131C11.0695 0.872522 11.1758 0.988937 11.245 1.12734L12.6817 3.99984H14.6667C14.8877 3.99984 15.0996 4.08763 15.2559 4.24392C15.4122 4.4002 15.5 4.61216 15.5 4.83317C15.5 5.05418 15.4122 5.26615 15.2559 5.42243C15.0996 5.57871 14.8877 5.6665 14.6667 5.6665H13.8333V14.8332C13.8333 15.4962 13.5699 16.1321 13.1011 16.6009C12.6323 17.0698 11.9964 17.3332 11.3333 17.3332H4.66667C4.00363 17.3332 3.36774 17.0698 2.8989 16.6009C2.43006 16.1321 2.16667 15.4962 2.16667 14.8332V5.6665H1.33333C1.11232 5.6665 0.900358 5.57871 0.744078 5.42243C0.587797 5.26615 0.5 5.05418 0.5 4.83317C0.5 4.61216 0.587797 4.4002 0.744078 4.24392C0.900358 4.08763 1.11232 3.99984 1.33333 3.99984H3.31833L4.755 1.12734ZM9.985 2.33317L10.8183 3.99984H5.18167L6.015 2.33317H9.985ZM7.16667 8.1665C7.16667 7.94549 7.07887 7.73353 6.92259 7.57725C6.76631 7.42097 6.55435 7.33317 6.33333 7.33317C6.11232 7.33317 5.90036 7.42097 5.74408 7.57725C5.5878 7.73353 5.5 7.94549 5.5 8.1665V13.1665C5.5 13.3875 5.5878 13.5995 5.74408 13.7558C5.90036 13.912 6.11232 13.9998 6.33333 13.9998C6.55435 13.9998 6.76631 13.912 6.92259 13.7558C7.07887 13.5995 7.16667 13.3875 7.16667 13.1665V8.1665ZM10.5 8.1665C10.5 7.94549 10.4122 7.73353 10.2559 7.57725C10.0996 7.42097 9.88768 7.33317 9.66667 7.33317C9.44565 7.33317 9.23369 7.42097 9.07741 7.57725C8.92113 7.73353 8.83333 7.94549 8.83333 8.1665V13.1665C8.83333 13.3875 8.92113 13.5995 9.07741 13.7558C9.23369 13.912 9.44565 13.9998 9.66667 13.9998C9.88768 13.9998 10.0996 13.912 10.2559 13.7558C10.4122 13.5995 10.5 13.3875 10.5 13.1665V8.1665Z" fill="#DB0000"/>
</svg>
