<svg width="40" height="40" viewBox="0 0 40 40" fill="none" xmlns="http://www.w3.org/2000/svg">
<path opacity="0.5" d="M10.833 30.0002V29.8502C10.833 28.4085 10.833 27.0852 10.978 26.0102C11.1363 24.8252 11.5113 23.5718 12.5413 22.5435C13.5713 21.5118 14.8247 21.1368 16.008 20.9768C17.0847 20.8335 18.408 20.8335 19.8513 20.8335H20.148C21.5913 20.8335 22.9147 20.8335 23.9897 20.9785C25.1747 21.1368 26.428 21.5118 27.4563 22.5418C28.488 23.5718 28.863 24.8252 29.023 26.0085C29.1647 27.0702 29.1663 28.3685 29.1663 29.7868C33.4547 28.8702 36.6663 25.1002 36.6663 20.5868C36.6663 16.4702 33.988 12.9668 30.258 11.6918C29.728 6.99016 25.6913 3.3335 20.793 3.3335C15.533 3.3335 11.2697 7.54683 11.2697 12.7452C11.2697 13.8952 11.478 14.9952 11.8597 16.0152C11.4038 15.927 10.9406 15.8824 10.4763 15.8818C6.53134 15.8835 3.33301 19.0435 3.33301 22.9418C3.33301 26.8402 6.53134 30.0002 10.4763 30.0002H10.833Z" fill="#4379F2"/>
<path fill-rule="evenodd" clip-rule="evenodd" d="M19.9997 23.3335C16.8563 23.3335 15.2863 23.3335 14.3097 24.3102C13.333 25.2868 13.333 26.8568 13.333 30.0002C13.333 33.1435 13.333 34.7135 14.3097 35.6902C15.2863 36.6668 16.8563 36.6668 19.9997 36.6668C23.143 36.6668 24.713 36.6668 25.6897 35.6902C26.6663 34.7135 26.6663 33.1435 26.6663 30.0002C26.6663 26.8568 26.6663 25.2868 25.6897 24.3102C24.713 23.3335 23.143 23.3335 19.9997 23.3335ZM23.008 28.4735L20.7847 26.2518C20.5763 26.044 20.294 25.9273 19.9997 25.9273C19.7054 25.9273 19.4231 26.044 19.2147 26.2518L16.9913 28.4735C16.884 28.5757 16.7981 28.6984 16.7389 28.8344C16.6797 28.9703 16.6482 29.1167 16.6464 29.2649C16.6446 29.4132 16.6725 29.5603 16.7284 29.6976C16.7843 29.835 16.8671 29.9597 16.9719 30.0646C17.0768 30.1694 17.2015 30.2522 17.3389 30.3081C17.4762 30.364 17.6233 30.3919 17.7716 30.3901C17.9198 30.3883 18.0662 30.3568 18.2021 30.2976C18.3381 30.2384 18.4608 30.1525 18.563 30.0452L18.888 29.7202V32.9635C18.888 33.2583 19.0051 33.5411 19.2136 33.7496C19.4221 33.958 19.7048 34.0752 19.9997 34.0752C20.2945 34.0752 20.5773 33.958 20.7857 33.7496C20.9942 33.5411 21.1113 33.2583 21.1113 32.9635V29.7202L21.4363 30.0452C21.6464 30.2453 21.9264 30.3553 22.2166 30.3517C22.5067 30.3482 22.7839 30.2314 22.9891 30.0262C23.1942 29.8211 23.3111 29.5438 23.3146 29.2537C23.3181 28.9636 23.2081 28.6836 23.008 28.4735Z" fill="#4379F2"/>
</svg>
