<svg width="20" height="21" viewBox="0 0 20 21" fill="none" xmlns="http://www.w3.org/2000/svg">
<g clip-path="url(#clip0_45_1653)">
<path d="M9.99996 10.0652C11.6808 10.0652 13.0434 8.7026 13.0434 7.02173C13.0434 5.34086 11.6808 3.97824 9.99996 3.97824C8.31909 3.97824 6.95648 5.34086 6.95648 7.02173C6.95648 8.7026 8.31909 10.0652 9.99996 10.0652Z" fill="#6F7E8C"/>
<path d="M16.087 11.8044C17.2876 11.8044 18.2609 10.8311 18.2609 9.63045C18.2609 8.42983 17.2876 7.45654 16.087 7.45654C14.8864 7.45654 13.9131 8.42983 13.9131 9.63045C13.9131 10.8311 14.8864 11.8044 16.087 11.8044Z" fill="#6F7E8C"/>
<path d="M3.97478 11.8044C5.17539 11.8044 6.14868 10.8311 6.14868 9.63045C6.14868 8.42983 5.17539 7.45654 3.97478 7.45654C2.77417 7.45654 1.80089 8.42983 1.80089 9.63045C1.80089 10.8311 2.77417 11.8044 3.97478 11.8044Z" fill="#6F7E8C"/>
<path d="M9.99997 10.9348C6.88343 10.9348 4.34778 13.4704 4.34778 16.587C4.34778 16.827 4.54258 17.0218 4.78258 17.0218H15.2174C15.4574 17.0218 15.6521 16.827 15.6521 16.587C15.6521 13.4704 13.1165 10.9348 9.99997 10.9348Z" fill="#6F7E8C"/>
<path d="M4.72434 12.7678C4.45826 12.7113 4.18781 12.6739 3.91304 12.6739C1.75565 12.6739 0 14.4296 0 16.587C0 16.827 0.194796 17.0218 0.434796 17.0218H3.55826C3.50955 16.8852 3.47824 16.74 3.47824 16.587C3.47824 15.16 3.94434 13.8426 4.72434 12.7678Z" fill="#6F7E8C"/>
<path d="M16.087 12.6739C15.8122 12.6739 15.5418 12.7113 15.2757 12.7678C16.0557 13.8426 16.5218 15.16 16.5218 16.587C16.5218 16.74 16.4905 16.8852 16.4418 17.0218H19.5652C19.8052 17.0218 20 16.827 20 16.587C20 14.4296 18.2444 12.6739 16.087 12.6739Z" fill="#6F7E8C"/>
</g>
<defs>
<clipPath id="clip0_45_1653">
<rect width="20" height="20" fill="white" transform="translate(0 0.5)"/>
</clipPath>
</defs>
</svg>
