<svg width="23" height="24" viewBox="0 0 23 24" fill="none" xmlns="http://www.w3.org/2000/svg">
<path d="M7.37783 6.0376C7.37783 6.0376 18.2673 6.51108 17.6043 13.6851C17.0877 19.2774 4.82447 17.5533 3.35059 14.9649C6.46457 10.9709 2.27111 7.52586 7.37783 6.0376Z" fill="#823131"/>
<path d="M6.85953 15.8026C6.56225 15.8026 6.27164 15.7144 6.02446 15.5492C5.77728 15.3841 5.58463 15.1493 5.47086 14.8747C5.3571 14.6 5.32733 14.2978 5.38533 14.0062C5.44332 13.7147 5.58648 13.4468 5.79669 13.2366C6.0069 13.0264 6.27472 12.8833 6.56629 12.8253C6.85786 12.7673 7.16009 12.797 7.43474 12.9108C7.70939 13.0246 7.94414 13.2172 8.1093 13.4644C8.27446 13.7116 8.36262 14.0022 8.36262 14.2995C8.36214 14.698 8.20363 15.08 7.92185 15.3618C7.64007 15.6436 7.25803 15.8021 6.85953 15.8026ZM6.85953 13.0502C6.61245 13.0502 6.37091 13.1235 6.16547 13.2607C5.96003 13.398 5.79991 13.5931 5.70535 13.8214C5.6108 14.0497 5.58606 14.3009 5.63426 14.5432C5.68246 14.7855 5.80144 15.0081 5.97616 15.1828C6.15087 15.3576 6.37347 15.4765 6.61581 15.5247C6.85815 15.5729 7.10933 15.5482 7.33761 15.4537C7.56589 15.3591 7.761 15.199 7.89827 14.9935C8.03554 14.7881 8.10881 14.5466 8.10881 14.2995C8.10845 13.9683 7.97672 13.6507 7.74251 13.4165C7.5083 13.1823 7.19075 13.0506 6.85953 13.0502Z" fill="#FFE4D2"/>
<path d="M19.6491 20.9845H3.35059C3.86719 19.507 5.81186 18.6301 7.1357 18.1921C7.80652 17.9714 8.50185 17.8337 9.20615 17.782L11.9491 17.5776C13.0091 17.4978 14.0749 17.6125 15.0936 17.9163C17.3792 18.5996 19.2089 19.507 19.6491 20.9845Z" fill="#FC9663"/>
<path d="M10.5422 20.8047C9.33421 20.8047 8.51303 20.5545 8.10155 20.0613C7.8419 19.75 7.75475 19.3475 7.8428 18.8646C8.10649 17.4163 9.83239 16.7681 11.4253 16.7681C12.5308 16.7681 13.3821 17.0587 13.8224 17.5865C14.1166 17.9392 14.2181 18.3781 14.1247 18.892C13.9032 20.1058 12.5973 20.8047 10.5422 20.8047ZM11.4253 16.9204C9.89573 16.9204 8.24081 17.5299 7.99239 18.892C7.91288 19.3282 7.9888 19.6889 8.217 19.9638C8.593 20.413 9.39665 20.6525 10.5408 20.6525C11.4747 20.6525 13.6795 20.4782 13.9737 18.8646C14.0586 18.3974 13.9679 18.0003 13.7042 17.684C13.2945 17.1899 12.485 16.9186 11.4253 16.9186V16.9204Z" fill="#F7CCB0"/>
<path d="M10.5413 20.9295H10.5157C10.4876 20.9322 10.4592 20.9289 10.4324 20.92C10.4055 20.911 10.3809 20.8966 10.36 20.8775C10.3391 20.8585 10.3224 20.8353 10.3109 20.8094C10.2995 20.7836 10.2936 20.7556 10.2936 20.7274C10.2936 20.6991 10.2995 20.6711 10.3109 20.6453C10.3224 20.6194 10.3391 20.5962 10.36 20.5772C10.3809 20.5582 10.4055 20.5437 10.4324 20.5348C10.4592 20.5258 10.4876 20.5225 10.5157 20.5252H10.6164C10.6667 20.53 10.7134 20.5533 10.7474 20.5907C10.7815 20.6281 10.8003 20.6768 10.8003 20.7274C10.8003 20.7779 10.7815 20.8266 10.7474 20.864C10.7134 20.9014 10.6667 20.9248 10.6164 20.9295H10.5413ZM10.0131 20.9115H9.99823L9.89446 20.903C9.86736 20.9013 9.84087 20.8942 9.81656 20.8822C9.79225 20.8701 9.77061 20.8532 9.75292 20.8327C9.73522 20.8121 9.72184 20.7881 9.71356 20.7623C9.70528 20.7364 9.70226 20.7092 9.7047 20.6821C9.70713 20.6551 9.71496 20.6288 9.72773 20.6049C9.74049 20.5809 9.75793 20.5597 9.77902 20.5426C9.8001 20.5255 9.8244 20.5128 9.85048 20.5053C9.87656 20.4977 9.90388 20.4955 9.93084 20.4987C9.96274 20.5018 9.99508 20.5041 10.0279 20.5068C10.0783 20.513 10.1245 20.538 10.1575 20.5766C10.1904 20.6153 10.2077 20.665 10.2058 20.7157C10.2039 20.7665 10.1831 20.8147 10.1474 20.8509C10.1117 20.8871 10.0638 20.9085 10.0131 20.9111V20.9115ZM11.1195 20.9088C11.0687 20.9063 11.0208 20.8848 10.9851 20.8487C10.9494 20.8125 10.9286 20.7643 10.9267 20.7135C10.9249 20.6627 10.9421 20.6131 10.975 20.5744C11.008 20.5357 11.0542 20.5108 11.1047 20.5045C11.1374 20.5018 11.1698 20.4996 11.2021 20.4965C11.2548 20.4934 11.3065 20.511 11.3465 20.5455C11.3864 20.58 11.4113 20.6287 11.416 20.6812C11.4206 20.7337 11.4047 20.786 11.3715 20.827C11.3383 20.868 11.2904 20.8944 11.2381 20.9008L11.1348 20.9093L11.1195 20.9088ZM11.7192 20.8374C11.667 20.8393 11.6161 20.821 11.577 20.7863C11.538 20.7516 11.5138 20.7032 11.5095 20.6511C11.5053 20.5991 11.5212 20.5474 11.5541 20.5068C11.5869 20.4662 11.6341 20.4398 11.6859 20.4331L11.7816 20.416C11.8336 20.4083 11.8866 20.421 11.9294 20.4515C11.9722 20.482 12.0015 20.5279 12.0111 20.5796C12.0208 20.6312 12.01 20.6846 11.9811 20.7285C11.9522 20.7724 11.9075 20.8034 11.8562 20.815L11.7533 20.8334C11.7421 20.8356 11.7307 20.837 11.7192 20.8374ZM9.41424 20.8352C9.40126 20.8352 9.38831 20.8338 9.37561 20.8311C9.34057 20.8244 9.30598 20.8176 9.27184 20.81C9.24582 20.8043 9.22118 20.7936 9.19933 20.7783C9.17747 20.7631 9.15883 20.7438 9.14445 20.7213C9.13008 20.6989 9.12027 20.6739 9.11557 20.6477C9.11088 20.6215 9.11139 20.5946 9.11708 20.5686C9.12278 20.5425 9.13354 20.5179 9.14875 20.496C9.16397 20.4742 9.18334 20.4555 9.20576 20.4412C9.22818 20.4268 9.25321 20.417 9.27943 20.4123C9.30564 20.4076 9.33252 20.4081 9.35854 20.4138C9.38954 20.4201 9.42053 20.4268 9.45198 20.4327C9.50503 20.4384 9.55371 20.4647 9.58748 20.506C9.62125 20.5473 9.63741 20.6003 9.63245 20.6534C9.62749 20.7065 9.60182 20.7556 9.56098 20.7899C9.52015 20.8243 9.46744 20.8412 9.41424 20.837V20.8352ZM12.3081 20.7035C12.2595 20.7033 12.2125 20.6855 12.1759 20.6535C12.1392 20.6216 12.1152 20.5775 12.1083 20.5293C12.1014 20.4812 12.112 20.4322 12.1382 20.3912C12.1644 20.3502 12.2045 20.3199 12.2511 20.306L12.3409 20.2781C12.3664 20.2695 12.3935 20.266 12.4204 20.2679C12.4473 20.2697 12.4735 20.277 12.4976 20.2891C12.5217 20.3013 12.5431 20.3181 12.5606 20.3386C12.5782 20.3591 12.5914 20.3829 12.5996 20.4086C12.6078 20.4343 12.6108 20.4614 12.6084 20.4883C12.6061 20.5151 12.5984 20.5413 12.5858 20.5651C12.5732 20.589 12.556 20.6101 12.5352 20.6272C12.5143 20.6444 12.4903 20.6572 12.4644 20.6649L12.3634 20.6955C12.3454 20.7006 12.3268 20.7033 12.3081 20.7035ZM8.8334 20.6699C8.80771 20.6699 8.78224 20.665 8.75838 20.6555C8.72424 20.642 8.691 20.6281 8.65821 20.6133C8.63387 20.6024 8.61191 20.5869 8.59357 20.5676C8.57523 20.5483 8.56087 20.5256 8.55132 20.5007C8.54177 20.4758 8.53721 20.4493 8.5379 20.4227C8.53859 20.3961 8.54451 20.3699 8.55534 20.3455C8.56616 20.3212 8.58167 20.2992 8.60099 20.2809C8.6203 20.2625 8.64304 20.2482 8.6679 20.2386C8.69276 20.2291 8.71926 20.2245 8.74588 20.2252C8.77251 20.2259 8.79874 20.2318 8.82307 20.2426C8.85092 20.2552 8.87922 20.2669 8.90797 20.2786C8.952 20.2958 8.98862 20.3279 9.01149 20.3693C9.03436 20.4107 9.04203 20.4587 9.03318 20.5052C9.02432 20.5516 8.99951 20.5935 8.96302 20.6236C8.92654 20.6537 8.88068 20.67 8.8334 20.6699ZM12.8732 20.4902C12.8271 20.4905 12.7823 20.4752 12.746 20.4466C12.7098 20.4181 12.6844 20.3781 12.6739 20.3332C12.6635 20.2883 12.6686 20.2411 12.6885 20.1995C12.7084 20.1579 12.7419 20.1243 12.7834 20.1043C12.8121 20.0908 12.84 20.0764 12.8678 20.0621C12.915 20.0412 12.9684 20.039 13.0171 20.0561C13.0658 20.0732 13.1062 20.1081 13.1301 20.1539C13.1539 20.1996 13.1595 20.2528 13.1455 20.3025C13.1316 20.3522 13.0993 20.3947 13.0552 20.4214C13.0237 20.4376 12.9914 20.4538 12.959 20.4691C12.9324 20.4825 12.9031 20.4897 12.8732 20.4902ZM8.31366 20.3689C8.26538 20.3691 8.21865 20.3518 8.18204 20.3204C8.15239 20.2952 8.12364 20.2692 8.09668 20.2422C8.07693 20.2236 8.0611 20.2013 8.05012 20.1765C8.03914 20.1517 8.03324 20.125 8.03276 20.0979C8.03228 20.0708 8.03723 20.0438 8.04732 20.0187C8.05742 19.9935 8.07244 19.9706 8.09152 19.9514C8.1106 19.9321 8.13335 19.9169 8.15841 19.9065C8.18348 19.8962 8.21036 19.891 8.23747 19.8912C8.26458 19.8915 8.29137 19.8971 8.31626 19.9079C8.34115 19.9186 8.36363 19.9342 8.38239 19.9538C8.40215 19.9736 8.42327 19.9929 8.44528 20.0117C8.47671 20.0387 8.49914 20.0747 8.50956 20.1148C8.51998 20.1549 8.51789 20.1972 8.50356 20.236C8.48924 20.2749 8.46336 20.3085 8.42942 20.3322C8.39548 20.356 8.35508 20.3688 8.31366 20.3689ZM13.3862 20.1721C13.3446 20.1717 13.3042 20.1585 13.2703 20.1344C13.2364 20.1102 13.2108 20.0762 13.1969 20.037C13.183 19.9978 13.1814 19.9553 13.1925 19.9152C13.2035 19.875 13.2266 19.8393 13.2587 19.8127C13.2825 19.7934 13.3058 19.7737 13.3283 19.7534C13.3686 19.7177 13.4215 19.6994 13.4753 19.7027C13.5291 19.7059 13.5794 19.7304 13.6151 19.7707C13.6509 19.8111 13.6691 19.8639 13.6659 19.9177C13.6626 19.9715 13.6381 20.0218 13.5978 20.0576C13.5704 20.0818 13.5426 20.1056 13.5138 20.1285C13.4775 20.1571 13.4325 20.1725 13.3862 20.1721ZM7.96686 19.8842C7.92567 19.8842 7.88547 19.8716 7.8516 19.8482C7.81773 19.8247 7.79181 19.7915 7.77729 19.753C7.76336 19.7166 7.75079 19.6789 7.74 19.6411C7.7314 19.6151 7.72816 19.5876 7.73046 19.5603C7.73277 19.533 7.74058 19.5065 7.75343 19.4822C7.76627 19.458 7.78389 19.4367 7.80521 19.4195C7.82653 19.4022 7.85111 19.3895 7.87748 19.382C7.90385 19.3746 7.93146 19.3725 7.95865 19.376C7.98583 19.3795 8.01202 19.3885 8.03565 19.4023C8.05928 19.4162 8.07986 19.4348 8.09614 19.4568C8.11241 19.4789 8.12406 19.504 8.13038 19.5306C8.13801 19.5567 8.14655 19.5832 8.15643 19.6088C8.16597 19.6337 8.1705 19.6602 8.16977 19.6869C8.16904 19.7135 8.16305 19.7397 8.15216 19.7641C8.14127 19.7884 8.12568 19.8103 8.1063 19.8286C8.08691 19.8469 8.0641 19.8612 8.03918 19.8707C8.0158 19.8796 7.99099 19.8842 7.96596 19.8842H7.96686ZM13.7905 19.7292C13.7539 19.7291 13.718 19.7192 13.6866 19.7004C13.6552 19.6816 13.6295 19.6546 13.6122 19.6224C13.5948 19.5902 13.5865 19.5539 13.5881 19.5173C13.5897 19.4808 13.6011 19.4453 13.6212 19.4147C13.6373 19.39 13.6526 19.3649 13.6661 19.3388C13.6938 19.2939 13.7379 19.2615 13.7891 19.2485C13.8403 19.2356 13.8945 19.2431 13.9403 19.2694C13.986 19.2958 14.0197 19.3389 14.0342 19.3897C14.0487 19.4405 14.0428 19.4949 14.0178 19.5414C13.9994 19.5738 13.9797 19.6057 13.959 19.6371C13.9407 19.6652 13.9157 19.6882 13.8863 19.7043C13.8569 19.7204 13.824 19.7289 13.7905 19.7292ZM7.8887 19.2903H7.87342C7.81976 19.2863 7.76989 19.2611 7.73477 19.2204C7.69964 19.1796 7.68214 19.1265 7.6861 19.0729C7.68879 19.0369 7.69239 19.0001 7.69733 18.9624C7.70066 18.9358 7.70919 18.9102 7.72243 18.8869C7.73567 18.8637 7.75335 18.8433 7.77448 18.8269C7.79561 18.8105 7.81977 18.7984 7.84557 18.7913C7.87137 18.7842 7.89831 18.7823 7.92486 18.7856C7.9514 18.7889 7.97703 18.7975 8.00028 18.8107C8.02353 18.8239 8.04395 18.8416 8.06036 18.8628C8.07678 18.8839 8.08887 18.908 8.09595 18.9338C8.10303 18.9596 8.10496 18.9866 8.10163 19.0131C8.09803 19.0437 8.09489 19.0733 8.09264 19.103C8.08867 19.1541 8.06554 19.2018 8.02788 19.2365C7.99023 19.2712 7.94083 19.2905 7.88959 19.2903H7.8887ZM14.0277 19.1775C14.0117 19.1776 13.9957 19.1756 13.9801 19.1717C13.9542 19.1655 13.9298 19.1543 13.9082 19.1387C13.8866 19.1231 13.8683 19.1033 13.8544 19.0806C13.8405 19.0579 13.8312 19.0327 13.827 19.0064C13.8228 18.9801 13.8238 18.9532 13.8301 18.9273C13.8368 18.8986 13.8431 18.8694 13.8485 18.8397C13.8574 18.7862 13.8871 18.7384 13.9311 18.7067C13.9751 18.675 14.0298 18.6619 14.0834 18.6704C14.1096 18.6744 14.1346 18.6836 14.1572 18.6974C14.1797 18.7112 14.1993 18.7294 14.2148 18.7508C14.2302 18.7723 14.2413 18.7966 14.2473 18.8223C14.2532 18.8481 14.2541 18.8748 14.2496 18.9008C14.2496 18.9008 14.2496 18.9067 14.2496 18.9071V18.9125C14.243 18.9499 14.2354 18.9863 14.2267 19.0217C14.2161 19.0662 14.1907 19.1058 14.1548 19.1341C14.1188 19.1624 14.0744 19.1777 14.0286 19.1775H14.0277ZM8.02526 18.7045C7.99908 18.7047 7.97312 18.6996 7.94889 18.6897C7.92422 18.6797 7.90177 18.6649 7.88282 18.6462C7.86387 18.6275 7.84879 18.6052 7.83844 18.5807C7.82809 18.5562 7.82268 18.5299 7.82252 18.5032C7.82236 18.4766 7.82744 18.4502 7.83748 18.4256C7.85156 18.3908 7.86653 18.3567 7.88241 18.3231C7.9062 18.2759 7.94747 18.2398 7.99744 18.2226C8.04742 18.2053 8.10215 18.2082 8.15001 18.2307C8.19787 18.2532 8.23508 18.2934 8.25373 18.3429C8.27238 18.3924 8.27099 18.4472 8.24987 18.4956C8.23729 18.5226 8.22516 18.5504 8.21393 18.5783C8.19858 18.6157 8.17243 18.6477 8.13883 18.6702C8.10523 18.6926 8.06569 18.7046 8.02526 18.7045ZM14.0717 18.5698C14.022 18.5696 13.9741 18.5513 13.937 18.5182C13.8999 18.485 13.8762 18.4395 13.8705 18.3901C13.8673 18.3613 13.8629 18.3326 13.8579 18.3043C13.8529 18.2779 13.8531 18.2507 13.8586 18.2244C13.8641 18.198 13.8748 18.1731 13.8901 18.1509C13.9053 18.1288 13.9248 18.1099 13.9475 18.0953C13.9701 18.0807 13.9954 18.0708 14.0218 18.0661C14.0483 18.0614 14.0755 18.062 14.1017 18.0679C14.128 18.0738 14.1528 18.0848 14.1747 18.1004C14.1967 18.1159 14.2153 18.1357 14.2296 18.1585C14.2438 18.1813 14.2534 18.2067 14.2577 18.2333C14.264 18.2706 14.2698 18.3083 14.2739 18.346C14.2769 18.3726 14.2746 18.3995 14.2672 18.4252C14.2598 18.4508 14.2474 18.4748 14.2307 18.4957C14.214 18.5165 14.1933 18.5339 14.1699 18.5468C14.1465 18.5596 14.1208 18.5677 14.0942 18.5707C14.0867 18.5704 14.0792 18.5696 14.0717 18.5684V18.5698ZM8.33567 18.1906C8.29716 18.1906 8.25945 18.1796 8.22695 18.1589C8.19444 18.1383 8.16848 18.1088 8.15209 18.074C8.1357 18.0391 8.12956 18.0003 8.13439 17.9621C8.13921 17.9239 8.1548 17.8879 8.17934 17.8582C8.2027 17.8303 8.22696 17.8025 8.25166 17.7751C8.28849 17.7378 8.33833 17.7161 8.39075 17.7147C8.44316 17.7133 8.49409 17.7322 8.53287 17.7675C8.57164 17.8028 8.59526 17.8518 8.59878 17.9041C8.6023 17.9564 8.58544 18.008 8.55174 18.0482C8.53108 18.0711 8.51131 18.0931 8.492 18.1174C8.47283 18.1401 8.44888 18.1584 8.42186 18.1708C8.39484 18.1832 8.36541 18.1895 8.33567 18.1893V18.1906ZM13.8804 18.001C13.8456 18.0011 13.8114 17.9922 13.781 17.9752C13.7506 17.9582 13.7251 17.9337 13.707 17.904C13.692 17.8798 13.6763 17.8559 13.6598 17.8326C13.6303 17.7888 13.619 17.7352 13.6284 17.6833C13.6377 17.6313 13.6669 17.585 13.7098 17.5542C13.7527 17.5234 13.8059 17.5105 13.8581 17.5183C13.9103 17.5261 13.9575 17.5539 13.9895 17.5958C14.012 17.6273 14.0345 17.6596 14.0533 17.6924C14.0722 17.7232 14.0825 17.7584 14.0832 17.7944C14.084 17.8305 14.075 17.866 14.0574 17.8975C14.0398 17.9289 14.0141 17.9551 13.983 17.9733C13.9518 17.9915 13.9164 18.0011 13.8804 18.001ZM8.77725 17.7791C8.7344 17.7792 8.69264 17.7656 8.65794 17.7405C8.62324 17.7154 8.59738 17.6799 8.58407 17.6392C8.57076 17.5984 8.57068 17.5545 8.58383 17.5137C8.59699 17.473 8.62271 17.4374 8.65731 17.4121C8.68651 17.3915 8.71571 17.3708 8.74715 17.3506C8.79178 17.3229 8.84539 17.3136 8.89673 17.3246C8.94808 17.3356 8.99316 17.3661 9.02251 17.4096C9.05187 17.4532 9.06321 17.5064 9.05417 17.5581C9.04512 17.6098 9.01639 17.656 8.97401 17.687C8.9484 17.7046 8.9228 17.7221 8.89764 17.7405C8.86267 17.7659 8.82048 17.7795 8.77725 17.7791ZM13.4698 17.5649C13.4272 17.5649 13.3856 17.5514 13.3512 17.5262C13.3269 17.5091 13.3022 17.4921 13.2766 17.4755C13.253 17.4616 13.2324 17.4431 13.2161 17.421C13.1998 17.399 13.1882 17.3738 13.1819 17.3472C13.1755 17.3205 13.1747 17.2928 13.1794 17.2658C13.184 17.2388 13.1941 17.213 13.209 17.19C13.2239 17.167 13.2433 17.1472 13.2661 17.1319C13.2888 17.1166 13.3144 17.1061 13.3414 17.1009C13.3683 17.0958 13.396 17.0961 13.4228 17.102C13.4495 17.1078 13.4749 17.1191 13.4972 17.135C13.5286 17.1552 13.5592 17.1763 13.587 17.1978C13.6216 17.2231 13.6473 17.2586 13.6605 17.2994C13.6736 17.3401 13.6736 17.384 13.6603 17.4247C13.6471 17.4654 13.6213 17.5009 13.5867 17.526C13.5521 17.5512 13.5104 17.5648 13.4675 17.5649H13.4698ZM9.29789 17.475C9.25175 17.475 9.207 17.4592 9.17101 17.4303C9.13502 17.4015 9.10994 17.3612 9.0999 17.3162C9.08986 17.2711 9.09545 17.224 9.11577 17.1826C9.13608 17.1412 9.16989 17.1079 9.21165 17.0882L9.30823 17.0433C9.33284 17.0314 9.35961 17.0246 9.38692 17.0232C9.41424 17.0219 9.44154 17.0261 9.4672 17.0356C9.49285 17.0451 9.51632 17.0597 9.5362 17.0784C9.55608 17.0972 9.57196 17.1198 9.58289 17.1449C9.59382 17.17 9.59957 17.197 9.5998 17.2243C9.60004 17.2517 9.59474 17.2788 9.58423 17.304C9.57373 17.3293 9.55823 17.3522 9.53867 17.3713C9.5191 17.3904 9.49588 17.4053 9.47039 17.4153L9.3837 17.4548C9.35704 17.4676 9.3279 17.4743 9.29834 17.4746L9.29789 17.475ZM12.9366 17.285C12.912 17.285 12.8877 17.2806 12.8647 17.272C12.8359 17.2607 12.8067 17.2504 12.7748 17.2405C12.7491 17.2324 12.7252 17.2192 12.7045 17.2017C12.6839 17.1842 12.667 17.1628 12.6548 17.1387C12.6425 17.1146 12.6352 17.0883 12.6333 17.0613C12.6314 17.0344 12.6349 17.0073 12.6435 16.9817C12.6522 16.9561 12.6659 16.9325 12.6838 16.9122C12.7017 16.892 12.7235 16.8755 12.7479 16.8638C12.7723 16.8521 12.7987 16.8454 12.8257 16.8441C12.8527 16.8427 12.8797 16.8468 12.9051 16.856C12.9397 16.8677 12.9734 16.8798 13.0066 16.8924C13.0509 16.9093 13.0878 16.9412 13.1109 16.9825C13.1341 17.0238 13.1422 17.0719 13.1336 17.1185C13.1251 17.1651 13.1006 17.2072 13.0642 17.2376C13.0279 17.268 12.9821 17.2848 12.9348 17.285H12.9366ZM9.86166 17.2616C9.81278 17.2619 9.76543 17.2446 9.72835 17.2127C9.69126 17.1809 9.66695 17.1367 9.65989 17.0883C9.65283 17.0399 9.6635 16.9906 9.68994 16.9495C9.71637 16.9084 9.75678 16.8782 9.80371 16.8645C9.83741 16.8542 9.8711 16.8448 9.90479 16.8353C9.95583 16.8236 10.0094 16.8321 10.0544 16.8589C10.0993 16.8858 10.1322 16.929 10.146 16.9795C10.1599 17.03 10.1537 17.0839 10.1287 17.1299C10.1038 17.176 10.062 17.2106 10.0122 17.2266L9.91961 17.2531C9.90095 17.2586 9.88157 17.2613 9.86211 17.2612L9.86166 17.2616ZM12.3548 17.1269C12.3423 17.1269 12.3299 17.1259 12.3175 17.1237L12.2232 17.1071C12.1714 17.0971 12.1256 17.0673 12.0954 17.024C12.0652 16.9808 12.053 16.9275 12.0614 16.8754C12.0698 16.8233 12.0982 16.7766 12.1404 16.745C12.1827 16.7135 12.2356 16.6996 12.2879 16.7064C12.3229 16.7122 12.3575 16.7181 12.3917 16.7248C12.4416 16.7337 12.4864 16.7611 12.5172 16.8014C12.548 16.8418 12.5625 16.8922 12.5579 16.9428C12.5533 16.9933 12.5298 17.0403 12.4922 17.0744C12.4546 17.1085 12.4056 17.1272 12.3548 17.1269ZM10.4501 17.1269C10.3979 17.1289 10.3468 17.1107 10.3077 17.076C10.2685 17.0414 10.2442 16.993 10.2399 16.9408C10.2355 16.8887 10.2515 16.8369 10.2844 16.7963C10.3173 16.7556 10.3646 16.7292 10.4164 16.7226C10.4506 16.7167 10.4852 16.7113 10.5198 16.7064C10.573 16.6984 10.6272 16.7119 10.6704 16.7439C10.7137 16.7758 10.7425 16.8237 10.7504 16.8769C10.7584 16.9301 10.7449 16.9843 10.713 17.0275C10.681 17.0708 10.6332 17.0996 10.58 17.1075L10.4843 17.1228C10.4731 17.1244 10.4619 17.1252 10.4506 17.1251L10.4501 17.1269ZM11.0503 17.0568C10.9997 17.0538 10.952 17.0319 10.9167 16.9956C10.8813 16.9592 10.8609 16.9109 10.8594 16.8602C10.8578 16.8095 10.8753 16.7601 10.9084 16.7216C10.9415 16.6832 10.9878 16.6585 11.0382 16.6525C11.0723 16.6525 11.1073 16.6484 11.1419 16.6471C11.1928 16.6491 11.2411 16.6701 11.2773 16.706C11.3134 16.7419 11.3347 16.7901 11.337 16.841C11.3392 16.8919 11.3223 16.9417 11.2895 16.9807C11.2567 17.0197 11.2104 17.0449 11.1599 17.0514L11.0629 17.0563L11.0503 17.0568ZM11.7551 17.0545H11.7434L11.6464 17.05C11.596 17.0437 11.5497 17.0187 11.5168 16.98C11.4839 16.9412 11.4668 16.8915 11.4688 16.8407C11.4707 16.7899 11.4917 16.7417 11.5275 16.7056C11.5633 16.6695 11.6113 16.6481 11.6621 16.6458L11.7664 16.6507C11.8167 16.6566 11.863 16.6812 11.8961 16.7196C11.9293 16.7579 11.9469 16.8073 11.9455 16.858C11.9441 16.9086 11.9238 16.957 11.8885 16.9934C11.8533 17.0299 11.8057 17.0518 11.7551 17.055V17.0545Z" fill="#FFE4D2"/>
<path d="M13.2166 16.6356V14.3149H9.17365V16.6356C9.17364 17.1041 8.99313 17.5546 8.66963 17.8934C8.6131 17.9522 8.57826 18.0285 8.57083 18.1097C8.5634 18.191 8.58383 18.2723 8.62875 18.3404C9.28416 19.3183 13.1048 19.3183 13.7602 18.3404C13.8051 18.2723 13.8255 18.191 13.8181 18.1097C13.8107 18.0285 13.7758 17.9522 13.7193 17.8934C13.3963 17.5543 13.2163 17.1039 13.2166 16.6356Z" fill="#FEB4A9"/>
<path d="M13.2195 16.7263C12.0066 17.6037 10.5444 17.9136 9.17064 17.8117C9.03588 17.8013 8.90605 17.7874 8.78027 17.7667C9.03605 17.4443 9.17522 17.0449 9.17514 16.6334V14.3149H13.2181V16.6352C13.2172 16.6657 13.2181 16.6962 13.2195 16.7263Z" fill="#F48C8C"/>
<path d="M5.81117 7.33705C5.53388 8.62883 5.37227 9.94275 5.32826 11.2632C5.26987 13.3588 6.0268 15.98 9.16998 16.2109C12.3132 16.4418 15.9222 14.5232 15.9222 8.58588C15.9222 6.92377 14.6415 4.27832 10.3923 4.27832C6.24377 4.27832 5.81117 7.33705 5.81117 7.33705Z" fill="#FEB4A9"/>
<path d="M14.9629 10.9399C14.6421 10.7215 14.0069 9.89452 13.8214 8.58505C12.631 8.28228 11.8193 8.11068 11.0767 6.78144C8.24033 7.99882 6.92681 5.90232 4.65017 9.35187C2.50785 7.44224 4.74001 1.3706 9.79373 3.53493C9.79373 3.53493 14.3758 1.15677 16.6075 6.57884C17.0693 7.70189 20.0597 16.2299 14.1076 16.2299C14.8137 14.3809 15.9471 10.9026 14.9629 10.9399Z" fill="#AF4F4F"/>
<path d="M17.341 12.4514C17.8623 11.6306 17.7515 10.6265 17.0936 10.2086C16.4357 9.79081 15.4798 10.1175 14.9585 10.9383C14.4372 11.7592 14.548 12.7633 15.2059 13.1811C15.8638 13.5989 16.8197 13.2722 17.341 12.4514Z" fill="#FEB4A9"/>
<path d="M15.5819 15.7614C15.3675 15.8125 15.1445 15.8158 14.9287 15.7711C14.7129 15.7264 14.5096 15.6348 14.3331 15.5028C14.1567 15.3707 14.0114 15.2015 13.9076 15.0071C13.8038 14.8127 13.744 14.5979 13.7325 14.3778C13.721 14.1577 13.758 13.9378 13.841 13.7336C13.9239 13.5294 14.0507 13.346 14.2124 13.1963C14.3741 13.0466 14.5668 12.9342 14.7767 12.8672C14.9867 12.8003 15.2088 12.7803 15.4273 12.8087C15.4607 12.813 15.491 12.8305 15.5115 12.8571C15.532 12.8838 15.5411 12.9175 15.5367 12.9509C15.5324 12.9842 15.5149 13.0145 15.4883 13.035C15.4616 13.0555 15.4279 13.0646 15.3945 13.0602C15.0973 13.0213 14.796 13.0906 14.5457 13.2556C14.2954 13.4205 14.1128 13.6701 14.0314 13.9586C13.95 14.2471 13.9751 14.5552 14.1022 14.8267C14.2293 15.0982 14.4499 15.3149 14.7236 15.4371C14.9973 15.5593 15.3059 15.5789 15.5929 15.4923C15.8799 15.4057 16.1261 15.2187 16.2865 14.9655C16.447 14.7123 16.5109 14.4098 16.4666 14.1133C16.4224 13.8168 16.2729 13.5462 16.0455 13.3509C16.1445 13.3365 16.242 13.3127 16.3366 13.2799C16.511 13.4682 16.6338 13.6985 16.6928 13.9484C16.7855 14.3361 16.7206 14.7447 16.5123 15.0847C16.3041 15.4246 15.9694 15.668 15.5819 15.7614Z" fill="#FFE4D2"/>
<path d="M7.2115 10.9627C7.49012 10.9627 7.71598 10.6266 7.71598 10.2121C7.71598 9.7975 7.49012 9.46143 7.2115 9.46143C6.93289 9.46143 6.70703 9.7975 6.70703 10.2121C6.70703 10.6266 6.93289 10.9627 7.2115 10.9627Z" fill="#442C2A"/>
<path d="M11.0767 11.0467C11.371 11.0467 11.6095 10.6917 11.6095 10.2538C11.6095 9.81592 11.371 9.46094 11.0767 9.46094C10.7825 9.46094 10.5439 9.81592 10.5439 10.2538C10.5439 10.6917 10.7825 11.0467 11.0767 11.0467Z" fill="#442C2A"/>
<path d="M8.99547 12.3004H8.98065C8.2309 12.2245 8.01797 11.9101 7.95777 11.7304C7.87826 11.4923 7.9699 11.2223 8.20305 11.0076C8.59836 10.6446 8.85936 10.0224 8.8616 10.0162C8.87626 9.98077 8.90437 9.95266 8.93975 9.938C8.97513 9.92334 9.01489 9.92334 9.05027 9.93799C9.08566 9.95265 9.11377 9.98076 9.12843 10.0161C9.14309 10.0515 9.14309 10.0913 9.12844 10.1267C9.11721 10.1545 8.84139 10.8131 8.39846 11.2201C8.24932 11.3575 8.18867 11.5103 8.23135 11.6392C8.29559 11.831 8.58623 11.9707 9.0094 12.0129C9.04683 12.0158 9.08168 12.0331 9.10652 12.0613C9.13137 12.0894 9.14425 12.1262 9.14244 12.1637C9.14062 12.2012 9.12425 12.2365 9.09681 12.2621C9.06936 12.2877 9.03301 12.3016 8.99547 12.3009V12.3004Z" fill="#442C2A"/>
<path d="M8.65455 13.8867C8.56156 13.8867 8.46498 13.8831 8.36436 13.875C8.31074 13.8707 8.26103 13.8453 8.22615 13.8043C8.19128 13.7634 8.17409 13.7103 8.17838 13.6567C8.18267 13.603 8.20808 13.5533 8.24902 13.5185C8.28997 13.4836 8.34309 13.4664 8.3967 13.4707C9.5449 13.5605 10.1037 13.0287 10.1284 13.0057C10.1669 12.9694 10.2181 12.9496 10.271 12.9505C10.324 12.9513 10.3744 12.9728 10.4117 13.0104C10.4491 13.0479 10.4702 13.0985 10.4708 13.1514C10.4713 13.2044 10.4511 13.2554 10.4146 13.2937C10.3885 13.3206 9.8068 13.8867 8.65455 13.8867Z" fill="#FF625A"/>
<path d="M8.90945 14.1648C8.74816 14.1675 8.59215 14.1073 8.47461 13.9968L8.76391 13.7124L8.75986 13.707C8.78861 13.7326 8.94674 13.8503 9.24322 13.6078C9.28496 13.5741 9.33833 13.5583 9.39168 13.5638C9.44502 13.5694 9.49401 13.5958 9.52794 13.6373C9.56188 13.6788 9.57801 13.7321 9.5728 13.7855C9.5676 13.8389 9.54149 13.888 9.50018 13.9222C9.28096 14.1032 9.07836 14.1648 8.90945 14.1648Z" fill="#FF625A"/>
<path d="M9.79336 8.59801C9.76371 8.59787 9.73483 8.58862 9.71061 8.57152C9.6864 8.55441 9.66802 8.53028 9.65798 8.50239C9.64793 8.4745 9.64669 8.4442 9.65443 8.41559C9.66218 8.38697 9.67853 8.36143 9.70127 8.34241C9.7107 8.33477 10.6473 7.57874 11.5404 8.23774C11.5712 8.26049 11.5917 8.29455 11.5973 8.33242C11.603 8.37029 11.5934 8.40886 11.5707 8.43966C11.5479 8.47046 11.5139 8.49096 11.476 8.49664C11.4381 8.50233 11.3996 8.49274 11.3688 8.46998C10.659 7.9453 9.91644 8.53961 9.88634 8.56522C9.86016 8.58674 9.82724 8.59835 9.79336 8.59801Z" fill="#442C2A"/>
<path d="M6.32414 8.59801C6.29457 8.59766 6.26582 8.58823 6.24179 8.57099C6.21776 8.55375 6.19961 8.52954 6.1898 8.50164C6.17999 8.47374 6.179 8.4435 6.18696 8.41501C6.19492 8.38653 6.21145 8.36118 6.2343 8.34241C6.24373 8.33477 7.17766 7.57874 8.07295 8.23774C8.10375 8.26044 8.12427 8.29444 8.13 8.33226C8.13573 8.37009 8.12619 8.40864 8.1035 8.43944C8.09226 8.45469 8.07813 8.46757 8.06191 8.47736C8.04569 8.48715 8.0277 8.49365 8.00897 8.49648C7.97115 8.50221 7.9326 8.49268 7.9018 8.46998C7.19158 7.9453 6.44903 8.53961 6.41938 8.56522C6.39265 8.58731 6.35881 8.59897 6.32414 8.59801Z" fill="#442C2A"/>
<path d="M15.4531 12.1608H15.4437C15.4247 12.1596 15.4062 12.1547 15.3892 12.1463C15.3721 12.1379 15.3569 12.1263 15.3444 12.112C15.3319 12.0977 15.3223 12.0811 15.3162 12.0631C15.3101 12.0452 15.3076 12.0261 15.3089 12.0072C15.3399 11.5441 15.6481 10.6721 16.5932 10.6721H16.6081C16.6463 10.6721 16.683 10.6873 16.71 10.7144C16.7371 10.7414 16.7523 10.7781 16.7523 10.8163C16.7523 10.8546 16.7371 10.8912 16.71 10.9183C16.683 10.9453 16.6463 10.9605 16.6081 10.9605C16.6031 10.9605 16.5991 10.9605 16.5946 10.9605C15.68 10.9605 15.6014 11.9829 15.5987 12.0265C15.596 12.0632 15.5795 12.0975 15.5525 12.1225C15.5254 12.1474 15.4899 12.1612 15.4531 12.1608Z" fill="#F48C8C"/>
<path d="M15.8253 12.7869C15.7951 12.7869 15.765 12.7839 15.7355 12.7779C15.4286 12.7177 15.2413 12.3633 15.3132 11.9887C15.3437 11.8201 15.4289 11.6663 15.5558 11.5511C15.614 11.4943 15.6851 11.4525 15.7631 11.4293C15.8411 11.4061 15.9235 11.4022 16.0033 11.4179C16.0831 11.4336 16.1579 11.4684 16.2213 11.5194C16.2846 11.5704 16.3347 11.636 16.3671 11.7106C16.4404 11.8653 16.4611 12.0398 16.4259 12.2074C16.3585 12.5457 16.1002 12.7869 15.8253 12.7869ZM15.9107 11.6976C15.8489 11.7006 15.7903 11.7256 15.7453 11.7681C15.6669 11.8416 15.6143 11.9385 15.5953 12.0444C15.5531 12.2591 15.6425 12.4657 15.7903 12.4936C15.9381 12.5214 16.0993 12.3655 16.1416 12.1504C16.1646 12.0446 16.1526 11.9343 16.1074 11.8359C16.0927 11.8023 16.0706 11.7725 16.0428 11.7486C16.0149 11.7247 15.982 11.7074 15.9466 11.698C15.9347 11.6966 15.9226 11.6964 15.9107 11.6976Z" fill="#F48C8C"/>
</svg>
